<svg width="50" height="50" viewBox="0 0 50 50" fill="none" xmlns="http://www.w3.org/2000/svg">
<path d="M23.2339 11.1141C23.225 9.68826 22.4204 8.3896 21.1513 7.7447L19.9414 7.12939H18.1428L23.2398 12.1702L23.2339 11.1141Z" fill="#00B5C2"/>
<path d="M21.243 4.52021C22.4884 3.85165 23.2605 2.55003 23.2517 1.13599L23.2428 0.0592041L18.1428 5.23018H19.9414L21.243 4.52021Z" fill="#00B5C2"/>
<path d="M31.866 12.111L31.8601 11.0579C31.8512 9.63199 31.0466 8.33332 29.7775 7.68843L28.5676 7.07312H26.769L31.866 12.1139V12.111Z" fill="#00B5C2"/>
<path d="M29.8692 4.46101C31.1146 3.79245 31.8867 2.49083 31.8779 1.0768L31.869 0L26.769 5.17099H28.5676L29.8692 4.46101Z" fill="#00B5C2"/>
<path d="M26.766 38.886C26.7749 40.3119 27.5796 41.6106 28.8486 42.2555L30.0586 42.8708H31.8572L26.7601 37.83L26.766 38.886Z" fill="#00B5C2"/>
<path d="M28.757 45.4799C27.5116 46.1484 26.7395 47.4501 26.7483 48.8641L26.7572 49.9409L31.8572 44.7699H30.0586L28.757 45.4799Z" fill="#00B5C2"/>
<path d="M18.134 37.892L18.1399 38.9451C18.1488 40.371 18.9534 41.6697 20.2225 42.3146L21.4324 42.9299H23.231L18.134 37.889V37.892Z" fill="#00B5C2"/>
<path d="M20.1337 45.539C18.8883 46.2075 18.1162 47.5091 18.1251 48.9232L18.134 50L23.2339 44.829H21.4353L20.1337 45.539Z" fill="#00B5C2"/>
<path d="M11.1141 26.7662C9.6882 26.7751 8.38954 27.5797 7.74465 28.8488L7.12933 30.0587V31.8573L12.1702 26.7603L11.117 26.7662H11.1141Z" fill="#00B5C2"/>
<path d="M4.52015 28.757C3.85159 27.5116 2.54997 26.7395 1.13594 26.7484L0.0591431 26.7572L5.23013 31.8572V30.0586L4.52015 28.757Z" fill="#00B5C2"/>
<path d="M12.108 18.134L11.0549 18.14C9.62903 18.1488 8.33037 18.9535 7.68547 20.2225L7.07016 21.4325V23.2311L12.111 18.134H12.108Z" fill="#00B5C2"/>
<path d="M4.46101 20.1338C3.79245 18.8884 2.49083 18.1163 1.0768 18.1252L0 18.1341L5.17098 23.2341V21.4355L4.46101 20.1338Z" fill="#00B5C2"/>
<path d="M38.8859 23.2339C40.3118 23.2251 41.6104 22.4204 42.2553 21.1513L42.8707 19.9414V18.1428L37.8298 23.2399L38.883 23.2339H38.8859Z" fill="#00B5C2"/>
<path d="M45.4798 21.243C46.1484 22.4885 47.45 23.2606 48.864 23.2517L49.9408 23.2428L44.7698 18.1428V19.9414L45.4798 21.243Z" fill="#00B5C2"/>
<path d="M37.8919 31.8661L38.9451 31.8602C40.3709 31.8513 41.6696 31.0466 42.3145 29.7776L42.9298 28.5677V26.769L37.889 31.8661H37.8919Z" fill="#00B5C2"/>
<path d="M45.539 29.8693C46.2075 31.1147 47.5092 31.8868 48.9232 31.8779L50 31.869L44.829 26.769V28.5677L45.539 29.8693Z" fill="#00B5C2"/>
<path d="M34.7355 6.03491H15.2645V6.33073H34.7355V6.03491Z" fill="black"/>
<path d="M34.7355 43.6696H15.2645V43.9654H34.7355V43.6696Z" fill="black"/>
<path d="M6.33061 15.2646H6.03479V34.7357H6.33061V15.2646Z" fill="black"/>
<path d="M43.9652 15.2646H43.6694V34.7357H43.9652V15.2646Z" fill="black"/>
</svg>
