<svg width="46" height="46" viewBox="0 0 46 46" fill="none" xmlns="http://www.w3.org/2000/svg">
<path d="M14.3075 37.9924L14.0853 38.2198C13.7158 38.5944 13.4677 39.0724 13.3721 39.5892L13.0181 41.5142L14.9353 41.1266C15.4521 41.0207 15.9224 40.7649 16.2919 40.3902L16.5141 40.1628C16.8836 39.7882 17.1316 39.3101 17.2272 38.7934L17.5812 36.8684L15.664 37.256C15.1472 37.3593 14.677 37.6177 14.3075 37.9924Z" fill="#00B5C2"/>
<path d="M29.4497 40.186L29.677 40.4082C30.0517 40.7777 30.5297 41.0257 31.0465 41.1213L32.9714 41.4753L32.5839 39.5581C32.4779 39.0413 32.2221 38.5711 31.8475 38.2016L31.6201 37.9794C31.2454 37.6099 30.7674 37.3618 30.2507 37.2662L28.3257 36.9122L28.7133 38.8294C28.8166 39.3462 29.075 39.8165 29.4497 40.186Z" fill="#00B5C2"/>
<path d="M31.6847 8.0025L31.9069 7.77512C32.2764 7.40046 32.5244 6.92245 32.62 6.40568L32.974 4.48071L31.0568 4.86829C30.54 4.97423 30.0698 5.23003 29.7003 5.60469L29.4781 5.83207C29.1086 6.20673 28.8605 6.68474 28.7649 7.20151L28.4109 9.12648L30.3282 8.7389C30.8449 8.63554 31.3152 8.37716 31.6847 8.0025Z" fill="#00B5C2"/>
<path d="M16.5399 5.81144L16.3125 5.58922C15.9379 5.21973 15.4599 4.97168 14.9431 4.87608L13.0181 4.52209L13.4057 6.43931C13.5116 6.95608 13.7674 7.42634 14.1421 7.79583L14.3695 8.01804C14.7441 8.38753 15.2222 8.63558 15.7389 8.73119L17.6639 9.08517L17.2763 7.16796C17.173 6.65119 16.9146 6.18093 16.5399 5.81144Z" fill="#00B5C2"/>
<path d="M7.99988 14.3101L7.7725 14.0879C7.39784 13.7184 6.91983 13.4703 6.40306 13.3747L4.47809 13.0208L4.86567 14.938C4.9716 15.4547 5.22741 15.925 5.60206 16.2945L5.82944 16.5167C6.2041 16.8862 6.68211 17.1342 7.19888 17.2298L9.12385 17.5838L8.73628 15.6666C8.63292 15.1498 8.37454 14.6796 7.99988 14.3101Z" fill="#00B5C2"/>
<path d="M5.80875 29.4523L5.58654 29.6797C5.21705 30.0544 4.969 30.5324 4.8734 31.0492L4.51941 32.9741L6.43663 32.5866C6.9534 32.4806 7.42366 32.2248 7.79315 31.8502L8.01536 31.6228C8.38485 31.2481 8.6329 30.7701 8.7285 30.2533L9.08249 28.3284L7.16527 28.7159C6.6485 28.8193 6.17824 29.0777 5.80875 29.4523Z" fill="#00B5C2"/>
<path d="M37.9923 31.6873L38.2197 31.9095C38.5944 32.279 39.0724 32.5271 39.5891 32.6227L41.5141 32.9767L41.1265 31.0594C41.0206 30.5427 40.7648 30.0724 40.3901 29.7029L40.1628 29.4807C39.7881 29.1112 39.3101 28.8632 38.7933 28.7676L36.8683 28.4136L37.2559 30.3308C37.3593 30.8476 37.6177 31.3178 37.9923 31.6873Z" fill="#00B5C2"/>
<path d="M40.1834 16.5425L40.4056 16.3152C40.7751 15.9405 41.0232 15.4625 41.1188 14.9457L41.4728 13.0208L39.5555 13.4083C39.0388 13.5143 38.5685 13.7701 38.199 14.1447L37.9768 14.3721C37.6073 14.7468 37.3593 15.2248 37.2637 15.7415L36.9097 17.6665L38.8269 17.2789C39.3437 17.1756 39.8139 16.9172 40.1834 16.5425Z" fill="#00B5C2"/>
<path d="M1.47665 1.29715L1.29395 1.47986L11.8379 12.0238L12.0206 11.8411L1.47665 1.29715Z" fill="black"/>
<path d="M34.1505 33.969L33.9678 34.1517L44.5117 44.6957L44.6944 44.513L34.1505 33.969Z" fill="black"/>
<path d="M22.9534 45.9918L21.3411 43.6276C20.9019 42.9842 20.6693 42.2323 20.6693 41.452V39.4676C20.6693 38.6898 20.9019 37.9379 21.3411 37.292L22.9534 34.9277L24.5658 37.292C25.005 37.9353 25.2376 38.6872 25.2376 39.4676V41.452C25.2376 42.2323 25.005 42.9842 24.5658 43.6276L22.9534 45.9918ZM22.9534 35.3877L21.5556 37.4392C21.1447 38.0387 20.9303 38.7415 20.9303 39.4676V41.452C20.9303 42.178 21.1473 42.8808 21.5556 43.4803L22.9534 45.5318L24.3539 43.4803C24.7647 42.8808 24.9818 42.178 24.9818 41.452V39.4676C24.9818 38.7415 24.7647 38.0387 24.3539 37.4392L22.9534 35.3877Z" fill="black"/>
<path d="M23.0361 11.064L21.4238 8.69982C20.9846 8.05645 20.752 7.30454 20.752 6.52422V4.53982C20.752 3.7595 20.9846 3.0076 21.4238 2.36422L23.0361 0L24.6485 2.36422C25.0877 3.0076 25.3203 3.7595 25.3203 4.53982V6.52422C25.3203 7.30454 25.0877 8.05645 24.6485 8.69982L23.0361 11.064ZM23.0361 0.462509L21.6357 2.51409C21.2249 3.11354 21.0078 3.81635 21.0078 4.54241V6.52681C21.0078 7.25287 21.2249 7.95567 21.6357 8.55513L23.0361 10.6067L24.434 8.55513C24.8448 7.95567 25.0593 7.25287 25.0593 6.52681V4.54241C25.0593 3.81635 24.8422 3.11354 24.434 2.51409L23.0361 0.462509Z" fill="black"/>
<path d="M6.52422 25.2427H4.53982C3.7595 25.2427 3.0076 25.0101 2.36422 24.5709L0 22.9586L2.36422 21.3462C3.0076 20.907 3.7595 20.6744 4.53982 20.6744H6.52422C7.30196 20.6744 8.05386 20.907 8.69982 21.3462L11.064 22.9586L8.69982 24.5709C8.05644 25.0101 7.30454 25.2427 6.52422 25.2427ZM0.459925 22.956L2.5115 24.3564C3.11354 24.7673 3.81376 24.9843 4.53982 24.9843H6.52422C7.25028 24.9843 7.95308 24.7673 8.55254 24.3564L10.6041 22.956L8.55254 21.5555C7.95308 21.1473 7.25028 20.9302 6.52422 20.9302H4.53982C3.81376 20.9302 3.11096 21.1473 2.5115 21.5555L0.459925 22.956Z" fill="black"/>
<path d="M41.4494 25.3228H39.465C38.6873 25.3228 37.9354 25.0902 37.2894 24.651L34.9252 23.0386L37.2894 21.4263C37.9328 20.9871 38.6847 20.7545 39.465 20.7545H41.4494C42.2297 20.7545 42.9816 20.9871 43.625 21.4263L45.9892 23.0386L43.625 24.651C42.9816 25.0902 42.2297 25.3228 41.4494 25.3228ZM35.3877 23.0386L37.4393 24.4391C38.0387 24.8473 38.7415 25.0644 39.4676 25.0644H41.452C42.178 25.0644 42.8809 24.8473 43.4803 24.4391L45.5319 23.0386L43.4803 21.6382C42.8783 21.2274 42.178 21.0103 41.452 21.0103H39.4676C38.7415 21.0103 38.0387 21.2274 37.4393 21.6382L35.3877 23.0386Z" fill="black"/>
<path d="M11.8389 33.9724L1.29492 44.5164L1.47763 44.6991L12.0216 34.1551L11.8389 33.9724Z" fill="black"/>
<path d="M44.5134 1.29845L33.9694 11.8424L34.1521 12.0251L44.6961 1.48116L44.5134 1.29845Z" fill="black"/>
</svg>
