<svg width="119" height="119" viewBox="0 0 119 119" fill="none" xmlns="http://www.w3.org/2000/svg">
<path d="M55.2968 26.4516C55.2757 23.058 53.3606 19.9672 50.3402 18.4323L47.4606 16.9679H43.18L55.3109 28.9651L55.2968 26.4516Z" fill="white"/>
<path d="M50.5585 10.7582C53.5226 9.16701 55.3602 6.06915 55.3391 2.70375L55.3179 0.140991L43.18 12.4479H47.4606L50.5585 10.7582Z" fill="white"/>
<path d="M75.8413 28.8242L75.8273 26.3178C75.8061 22.9242 73.8911 19.8334 70.8707 18.2985L67.9911 16.8341H63.7104L75.8413 28.8313V28.8242Z" fill="white"/>
<path d="M71.0889 10.6172C74.053 9.02602 75.8906 5.92818 75.8695 2.56278L75.8484 0L63.7104 12.3069H67.9911L71.0889 10.6172Z" fill="white"/>
<path d="M63.7032 92.5484C63.7243 95.942 65.6393 99.0328 68.6598 100.568L71.5394 102.032H75.82L63.6891 90.0349L63.7032 92.5484Z" fill="white"/>
<path d="M68.4417 108.242C65.4776 109.833 63.64 112.931 63.6611 116.296L63.6822 118.859L75.8202 106.552H71.5395L68.4417 108.242Z" fill="white"/>
<path d="M43.1586 90.1828L43.1727 92.6893C43.1939 96.0828 45.1089 99.1737 48.1293 100.709L51.0089 102.173H55.2896L43.1586 90.1758V90.1828Z" fill="white"/>
<path d="M47.9181 108.383C44.954 109.974 43.1164 113.072 43.1375 116.437L43.1586 119L55.2966 106.693H51.0159L47.9181 108.383Z" fill="white"/>
<path d="M26.4515 63.7032C23.058 63.7243 19.9672 65.6393 18.4323 68.6597L16.9679 71.5393V75.82L28.965 63.6891L26.4586 63.7032H26.4515Z" fill="white"/>
<path d="M10.7581 68.4416C9.16698 65.4775 6.06912 63.6399 2.70372 63.6611L0.140945 63.6822L12.4479 75.8202V71.5395L10.7581 68.4416Z" fill="white"/>
<path d="M28.817 43.1587L26.3106 43.1728C22.917 43.1939 19.8262 45.1089 18.2914 48.1293L16.8269 51.009V55.2896L28.8241 43.1587H28.817Z" fill="white"/>
<path d="M10.6172 47.9181C9.02602 44.954 5.92817 43.1164 2.56277 43.1375L0 43.1586L12.3069 55.2966V51.0159L10.6172 47.9181Z" fill="white"/>
<path d="M92.5486 55.2968C95.9422 55.2757 99.033 53.3606 100.568 50.3402L102.032 47.4606V43.1799L90.0351 55.3109L92.5415 55.2968H92.5486Z" fill="white"/>
<path d="M108.242 50.5585C109.833 53.5226 112.931 55.3602 116.296 55.339L118.859 55.3179L106.552 43.1799V47.4606L108.242 50.5585Z" fill="white"/>
<path d="M90.1829 75.8414L92.6893 75.8273C96.0829 75.8062 99.1737 73.8911 100.709 70.8707L102.173 67.9911V63.7104L90.1759 75.8414H90.1829Z" fill="white"/>
<path d="M108.383 71.089C109.974 74.0531 113.072 75.8907 116.437 75.8696L119 75.8484L106.693 63.7104V67.9911L108.383 71.089Z" fill="white"/>
<path d="M82.6706 14.3627H36.3295V15.0667H82.6706V14.3627Z" fill="white"/>
<path d="M82.6706 103.933H36.3295V104.637H82.6706V103.933Z" fill="white"/>
<path d="M15.0668 36.3295H14.3627V82.6706H15.0668V36.3295Z" fill="white"/>
<path d="M104.637 36.3295H103.933V82.6706H104.637V36.3295Z" fill="white"/>
</svg>
