<svg width="119" height="119" viewBox="0 0 119 119" fill="none" xmlns="http://www.w3.org/2000/svg">
<path d="M59.7365 115.28L39.5155 95.334L38.691 96.1712L38.723 96.5035C39.6561 105.023 45.0309 112.404 52.8471 115.907L59.7621 119.006L66.2617 116.028C74.1354 112.423 79.4719 104.876 80.2452 96.2543L80.3091 95.858L79.5933 95.155L59.7301 115.293L59.7365 115.28Z" fill="white"/>
<path d="M59.2636 3.72594L79.4847 23.6722L80.3091 22.835L80.2772 22.5026C79.3441 13.9835 73.9693 6.60189 66.1531 3.09963L59.238 0L52.7384 2.9782C44.8647 6.58271 39.5283 14.1305 38.755 22.7519L38.691 23.1481L39.4068 23.8511L59.27 3.71316L59.2636 3.72594Z" fill="white"/>
<path d="M3.72595 59.7365L23.6722 39.5155L22.835 38.691L22.5026 38.723C13.9835 39.6561 6.60189 45.0309 3.09963 52.8471L0 59.7621L2.9782 66.2617C6.58271 74.1354 14.1305 79.4719 22.7519 80.2452L23.1481 80.3091L23.8511 79.5933L3.71316 59.7302L3.72595 59.7365Z" fill="white"/>
<path d="M115.274 59.2698L95.3278 79.4909L96.165 80.3153L96.4973 80.2834C105.016 79.3503 112.398 73.9755 115.9 66.1593L119 59.2443L116.022 52.7446C112.417 44.871 104.869 39.5345 96.2481 38.7612L95.8518 38.6973L95.1488 39.4131L115.287 59.2762L115.274 59.2698Z" fill="white"/>
<path d="M31.9091 86.6439L5.82928 112.724L6.2812 113.176L32.361 87.0958L31.9091 86.6439Z" fill="white"/>
<path d="M6.28339 5.82763L5.83148 6.27954L31.9112 32.3593L32.3632 31.9074L6.28339 5.82763Z" fill="white"/>
<path d="M87.0866 86.6414L86.6346 87.0933L112.714 113.173L113.166 112.721L87.0866 86.6414Z" fill="white"/>
<path d="M59.5639 109.612L56.1383 105.425C55.2372 104.32 54.7515 103.029 54.7451 101.687L54.7195 98.3443C54.7132 96.9958 55.1733 95.6984 56.0617 94.5864C56.835 93.6149 58.0684 93.0525 59.4489 93.0461C59.4617 93.0461 59.4745 93.0461 59.4872 93.0461C60.8549 93.0461 62.082 93.5894 62.8617 94.5416C63.7628 95.6473 64.2485 96.9383 64.2549 98.2804L64.2805 101.623C64.2933 102.965 63.8267 104.262 62.9384 105.381L59.5703 109.612H59.5639ZM59.4872 93.6788H59.4553C58.2857 93.6852 57.2056 94.171 56.5602 94.9826C55.7613 95.9796 55.3459 97.1428 55.3586 98.3379L55.3842 101.68C55.3906 102.875 55.8252 104.032 56.6368 105.023L59.5639 108.595L62.4399 104.984C63.2387 103.981 63.6542 102.818 63.6414 101.629L63.6158 98.2867C63.6094 97.0916 63.1748 95.9349 62.3632 94.9443C61.7177 94.1518 60.6376 93.6852 59.4808 93.6852L59.4872 93.6788Z" fill="white"/>
<path d="M59.5128 25.9665C58.1451 25.9665 56.918 25.4233 56.1383 24.471C55.2372 23.3654 54.7515 22.0744 54.7451 20.7323L54.7195 17.3898C54.7132 16.0477 55.1733 14.7504 56.0617 13.6319L59.4297 9.40112L62.8553 13.5872C63.7564 14.6928 64.2421 15.9838 64.2485 17.3259L64.2741 20.6684C64.2805 22.0169 63.8203 23.3143 62.932 24.4263C62.1587 25.3977 60.9252 25.9601 59.5448 25.9665H59.5064H59.5128ZM59.4425 10.4109L56.5666 14.0218C55.7677 15.0252 55.3523 16.1883 55.3586 17.3771L55.3842 20.7195C55.3906 21.9147 55.8252 23.0714 56.6368 24.062C57.2887 24.8609 58.3752 25.3147 59.5448 25.3211C60.7143 25.3147 61.7944 24.8289 62.4399 24.0173C63.2387 23.0203 63.6542 21.8571 63.6414 20.662L63.6158 17.3195C63.6094 16.1244 63.1748 14.9677 62.3632 13.9771L59.4361 10.4045L59.4425 10.4109Z" fill="white"/>
<path d="M17.3451 64.2805C16.0158 64.2805 14.7312 63.8139 13.6255 62.9384L9.39471 59.5703L13.5808 56.1448C14.6864 55.2372 15.9774 54.7579 17.3195 54.7515L20.662 54.726C21.9913 54.726 23.3079 55.1797 24.4199 56.0681C25.3913 56.8414 25.9537 58.0748 25.9601 59.4553C25.9729 60.8357 25.4233 62.0756 24.4646 62.8617C23.359 63.7628 22.068 64.2485 20.7259 64.2549L17.3834 64.2805H17.3451ZM10.4109 59.5639L14.0218 62.4399C15.0252 63.2387 16.1883 63.6606 17.377 63.6478L20.7195 63.6222C21.9146 63.6158 23.0714 63.1812 24.062 62.3696C24.8609 61.7177 25.3338 60.6312 25.321 59.4617C25.3146 58.2921 24.8289 57.212 24.0173 56.5666C23.0203 55.7677 21.8827 55.3587 20.662 55.3651L17.3195 55.3906C16.1244 55.397 14.9676 55.8316 13.977 56.6432L10.4045 59.5703L10.4109 59.5639Z" fill="white"/>
<path d="M98.2996 64.2805C96.9703 64.2805 95.6793 63.8139 94.5801 62.9384C93.6086 62.1651 93.0462 60.9316 93.0399 59.5512C93.0335 58.1707 93.5767 56.9308 94.5353 56.1448C95.641 55.2372 96.9319 54.7579 98.274 54.7515L101.617 54.726H101.655C102.984 54.726 104.269 55.1925 105.374 56.0681L109.605 59.4361L105.419 62.8617C104.314 63.7692 103.023 64.2485 101.68 64.2549L98.338 64.2805H98.2996ZM101.655 55.3651H101.623L98.2804 55.3906C97.0853 55.397 95.9286 55.8316 94.938 56.6432C94.1391 57.2951 93.6662 58.388 93.6789 59.5512C93.6917 60.7143 94.171 61.8008 94.9827 62.4463C95.9733 63.2324 97.1173 63.6478 98.306 63.6478H98.338L101.68 63.6222C102.876 63.6158 104.032 63.1812 105.023 62.3696L108.595 59.4425L104.985 56.5666C103.994 55.7805 102.844 55.3587 101.661 55.3587L101.655 55.3651Z" fill="white"/>
<path d="M112.653 5.89912L86.573 31.9789L87.0249 32.4308L113.105 6.35104L112.653 5.89912Z" fill="white"/>
</svg>
