<svg width="51" height="50" viewBox="0 0 51 50" fill="none" xmlns="http://www.w3.org/2000/svg">
<path d="M13.4072 36.405L2.44934 47.3629L2.63922 47.5528L13.5971 36.5949L13.4072 36.405Z" fill="black"/>
<path d="M49.9579 7.67483e-06L39 10.9579L39.1899 11.1478L50.1478 0.189886L49.9579 7.67483e-06Z" fill="black"/>
<path d="M2.64007 2.44867L2.4502 2.63855L13.4081 13.5964L13.598 13.4065L2.64007 2.44867Z" fill="black"/>
<path d="M36.591 36.404L36.4011 36.5939L47.359 47.5518L47.5489 47.3619L36.591 36.404Z" fill="black"/>
<path d="M25.0269 46.0553L23.5876 44.2965C23.209 43.8319 23.0049 43.2895 23.0022 42.7256L22.9915 41.3212C22.9888 40.7546 23.1821 40.2095 23.5554 39.7422C23.8803 39.3341 24.3986 39.0978 24.9786 39.0951C24.984 39.0951 24.9893 39.0951 24.9947 39.0951C25.5694 39.0951 26.0849 39.3233 26.4125 39.7234C26.7912 40.188 26.9952 40.7304 26.9979 41.2943L27.0087 42.6987C27.014 43.2626 26.818 43.8078 26.4448 44.2777L25.0296 46.0553H25.0269ZM24.9947 39.3609H24.9813C24.4899 39.3636 24.0361 39.5677 23.7648 39.9087C23.4292 40.3276 23.2546 40.8164 23.26 41.3185L23.2708 42.7229C23.2734 43.2251 23.456 43.7111 23.7971 44.1273L25.0269 45.6284L26.2353 44.1112C26.571 43.6896 26.7455 43.2009 26.7401 42.7014L26.7294 41.297C26.7267 40.7949 26.5441 40.3088 26.2031 39.8926C25.9319 39.5596 25.4781 39.3636 24.992 39.3636L24.9947 39.3609Z" fill="black"/>
<path d="M25.0054 10.9104C24.4308 10.9104 23.9152 10.6822 23.5876 10.2821C23.209 9.81754 23.0049 9.27511 23.0022 8.7112L22.9915 7.3068C22.9888 6.74289 23.1821 6.19778 23.5554 5.72785L24.9705 3.9502L26.4099 5.70905C26.7885 6.17361 26.9926 6.71604 26.9952 7.27995L27.006 8.68435C27.0087 9.25094 26.8153 9.79605 26.4421 10.2633C26.1172 10.6715 25.5989 10.9078 25.0189 10.9104H25.0028H25.0054ZM24.9759 4.37447L23.7675 5.89165C23.4319 6.31324 23.2573 6.80197 23.26 7.30143L23.2708 8.70583C23.2734 9.20798 23.456 9.69402 23.7971 10.1102C24.071 10.4459 24.5275 10.6366 25.0189 10.6392C25.5103 10.6366 25.9641 10.4325 26.2353 10.0914C26.571 9.67253 26.7455 9.18381 26.7401 8.68166L26.7294 7.27726C26.7267 6.77511 26.5441 6.28907 26.2031 5.87286L24.9732 4.37178L24.9759 4.37447Z" fill="black"/>
<path d="M7.28788 27.0085C6.72934 27.0085 6.1896 26.8125 5.72504 26.4446L3.94739 25.0295L5.70625 23.5902C6.1708 23.2088 6.71323 23.0074 7.27714 23.0048L8.68155 22.994C9.24008 22.994 9.79325 23.1847 10.2605 23.5579C10.6686 23.8828 10.905 24.4011 10.9076 24.9811C10.913 25.5612 10.6821 26.0821 10.2793 26.4124C9.81473 26.791 9.2723 26.9951 8.70839 26.9978L7.30399 27.0085H7.28788ZM4.37435 25.0268L5.89153 26.2352C6.31312 26.5708 6.80184 26.7481 7.30131 26.7427L8.70571 26.7319C9.20786 26.7293 9.69389 26.5467 10.1101 26.2056C10.4458 25.9317 10.6445 25.4752 10.6391 24.9838C10.6364 24.4924 10.4324 24.0386 10.0913 23.7674C9.67242 23.4317 9.19443 23.2599 8.68155 23.2625L7.27714 23.2733C6.77499 23.276 6.28895 23.4586 5.87273 23.7996L4.37166 25.0295L4.37435 25.0268Z" fill="black"/>
<path d="M41.3023 27.0085C40.7438 27.0085 40.2013 26.8125 39.7395 26.4446C39.3313 26.1197 39.095 25.6014 39.0923 25.0214C39.0896 24.4414 39.3179 23.9204 39.7207 23.5902C40.1852 23.2088 40.7276 23.0074 41.2915 23.0048L42.696 22.994H42.7121C43.2706 22.994 43.8104 23.19 44.2749 23.5579L46.0526 24.9731L44.2937 26.4124C43.8291 26.7937 43.2867 26.9951 42.7228 26.9978L41.3184 27.0085H41.3023ZM42.7121 23.2625H42.6986L41.2942 23.2733C40.7921 23.276 40.306 23.4586 39.8898 23.7996C39.5542 24.0735 39.3555 24.5327 39.3608 25.0214C39.3662 25.5101 39.5676 25.9666 39.9086 26.2378C40.3248 26.5681 40.8055 26.7427 41.305 26.7427H41.3184L42.7228 26.7319C43.225 26.7293 43.711 26.5467 44.1272 26.2056L45.6283 24.9758L44.1111 23.7674C43.6949 23.4371 43.2115 23.2599 42.7148 23.2599L42.7121 23.2625Z" fill="black"/>
<path d="M25.0994 48.4373L16.6031 40.0565L16.2567 40.4083L16.2701 40.5479C16.6622 44.1274 18.9205 47.2289 22.2046 48.7004L25.1101 50.0028L27.841 48.7515C31.1493 47.237 33.3915 44.0656 33.7164 40.4432L33.7433 40.2767L33.4425 39.9813L25.0967 48.4427L25.0994 48.4373Z" fill="#80A5E0"/>
<path d="M24.9006 1.56552L33.3969 9.94629L33.7433 9.59452L33.7299 9.45489C33.3378 5.8754 31.0795 2.7739 27.7954 1.30236L24.8899 0L22.159 1.25134C18.8507 2.76584 16.6085 5.93716 16.2836 9.55961L16.2567 9.7261L16.5575 10.0215L24.9033 1.56015L24.9006 1.56552Z" fill="#80A5E0"/>
<path d="M1.56553 25.0994L9.9463 16.6031L9.59453 16.2567L9.45488 16.2701C5.8754 16.6622 2.7739 18.9205 1.30236 22.2046L0 25.1101L1.25134 27.841C2.76584 31.1493 5.93717 33.3915 9.55962 33.7164L9.7261 33.7433L10.0215 33.4425L1.56015 25.0967L1.56553 25.0994Z" fill="#80A5E0"/>
<path d="M48.4345 24.9033L40.0537 33.3996L40.4055 33.746L40.5451 33.7325C44.1246 33.3405 47.2261 31.0822 48.6976 27.7981L50 24.8926L48.7487 22.1617C47.2342 18.8534 44.0628 16.6112 40.4404 16.2863L40.2739 16.2594L39.9785 16.5601L48.4398 24.906L48.4345 24.9033Z" fill="#80A5E0"/>
</svg>
