<svg width="119" height="119" viewBox="0 0 119 119" fill="none" xmlns="http://www.w3.org/2000/svg">
<path d="M37.0211 98.3062L36.446 98.8946C35.4899 99.864 34.8481 101.101 34.6007 102.438L33.6847 107.419L38.6458 106.416C39.983 106.142 41.1999 105.48 42.156 104.511L42.731 103.923C43.6871 102.953 44.329 101.716 44.5764 100.379L45.4923 95.3977L40.5313 96.4006C39.194 96.6681 37.9772 97.3367 37.0211 98.3062Z" fill="white"/>
<path d="M76.2015 103.983L76.7899 104.558C77.7593 105.514 78.9963 106.156 80.3335 106.403L85.3146 107.319L84.3117 102.358C84.0376 101.021 83.3757 99.8037 82.4062 98.8476L81.8178 98.2726C80.8483 97.3165 79.6114 96.6746 78.2742 96.4272L73.293 95.5112L74.2959 100.472C74.5634 101.81 75.232 103.026 76.2015 103.983Z" fill="white"/>
<path d="M81.9849 20.707L82.5599 20.1186C83.516 19.1491 84.1579 17.9122 84.4053 16.5749L85.3213 11.5938L80.3602 12.5967C79.023 12.8708 77.8061 13.5327 76.85 14.5022L76.275 15.0906C75.3189 16.0601 74.677 17.297 74.4296 18.6343L73.5136 23.6154L78.4747 22.6125C79.8119 22.3451 81.0288 21.6764 81.9849 20.707Z" fill="white"/>
<path d="M42.7978 15.0371L42.2095 14.4621C41.24 13.5059 40.0031 12.8641 38.6658 12.6167L33.6847 11.7007L34.6876 16.6618C34.9617 17.999 35.6236 19.2159 36.5931 20.172L37.1815 20.747C38.151 21.7031 39.3879 22.345 40.7252 22.5924L45.7063 23.5084L44.7034 18.5473C44.4359 17.2101 43.7673 15.9932 42.7978 15.0371Z" fill="white"/>
<path d="M20.7003 37.0278L20.1119 36.4528C19.1424 35.4967 17.9055 34.8548 16.5683 34.6074L11.5871 33.6914L12.59 38.6525C12.8641 39.9898 13.5261 41.2066 14.4956 42.1628L15.0839 42.7378C16.0534 43.6939 17.2903 44.3357 18.6276 44.5831L23.6087 45.4991L22.6058 40.538C22.3384 39.2008 21.6698 37.9839 20.7003 37.0278Z" fill="white"/>
<path d="M15.0307 76.2083L14.4557 76.7967C13.4996 77.7661 12.8577 79.0031 12.6103 80.3403L11.6943 85.3215L16.6554 84.3186C17.9927 84.0444 19.2095 83.3825 20.1656 82.413L20.7406 81.8246C21.6968 80.8551 22.3386 79.6182 22.586 78.281L23.502 73.2998L18.5409 74.3027C17.2037 74.5702 15.9868 75.2388 15.0307 76.2083Z" fill="white"/>
<path d="M98.3061 81.9918L98.8945 82.5669C99.864 83.523 101.101 84.1648 102.438 84.4122L107.419 85.3282L106.416 80.3671C106.142 79.0299 105.48 77.813 104.511 76.8569L103.922 76.2819C102.953 75.3258 101.716 74.6839 100.379 74.4365L95.3976 73.5205L96.4006 78.4816C96.668 79.8188 97.3366 81.0357 98.3061 81.9918Z" fill="white"/>
<path d="M103.976 42.8046L104.551 42.2162C105.507 41.2467 106.149 40.0098 106.396 38.6726L107.312 33.6914L102.351 34.6943C101.014 34.9685 99.7968 35.6304 98.8407 36.5999L98.2656 37.1883C97.3095 38.1578 96.6677 39.3947 96.4203 40.7319L95.5043 45.7131L100.465 44.7102C101.803 44.4427 103.019 43.7741 103.976 42.8046Z" fill="white"/>
<path d="M3.82141 3.35632L3.34863 3.8291L30.6328 31.1133L31.1055 30.6405L3.82141 3.35632Z" fill="white"/>
<path d="M88.3655 87.8959L87.8928 88.3687L115.177 115.653L115.65 115.18L88.3655 87.8959Z" fill="white"/>
<path d="M59.3931 119.006L55.2209 112.888C54.0843 111.223 53.4825 109.278 53.4825 107.258V102.124C53.4825 100.111 54.0843 98.1653 55.2209 96.4938L59.3931 90.376L63.5652 96.4938C64.7018 98.1586 65.3036 100.104 65.3036 102.124V107.258C65.3036 109.278 64.7018 111.223 63.5652 112.888L59.3931 119.006ZM59.3931 91.5661L55.7759 96.8749C54.7128 98.4261 54.1578 100.245 54.1578 102.124V107.258C54.1578 109.137 54.7195 110.956 55.7759 112.507L59.3931 117.816L63.0169 112.507C64.08 110.956 64.6417 109.137 64.6417 107.258V102.124C64.6417 100.245 64.08 98.4261 63.0169 96.8749L59.3931 91.5661Z" fill="white"/>
<path d="M59.6068 28.63L55.4347 22.5122C54.298 20.8474 53.6963 18.9017 53.6963 16.8825V11.7475C53.6963 9.72833 54.298 7.78267 55.4347 6.11782L59.6068 0L63.779 6.11782C64.9156 7.78267 65.5173 9.72833 65.5173 11.7475V16.8825C65.5173 18.9017 64.9156 20.8474 63.779 22.5122L59.6068 28.63ZM59.6068 1.19682L55.9829 6.50561C54.9198 8.0568 54.3582 9.87543 54.3582 11.7542V16.8892C54.3582 18.768 54.9198 20.5866 55.9829 22.1378L59.6068 27.4466L63.224 22.1378C64.2871 20.5866 64.842 18.768 64.842 16.8892V11.7542C64.842 9.87543 64.2804 8.0568 63.224 6.50561L59.6068 1.19682Z" fill="white"/>
<path d="M16.8824 65.3172H11.7475C9.72827 65.3172 7.78263 64.7154 6.11779 63.5788L0 59.4066L6.11779 55.2345C7.78263 54.0978 9.72827 53.4961 11.7475 53.4961H16.8824C18.8949 53.4961 20.8406 54.0978 22.5121 55.2345L28.6299 59.4066L22.5121 63.5788C20.8473 64.7154 18.9016 65.3172 16.8824 65.3172ZM1.19013 59.4L6.4989 63.0238C8.05676 64.0869 9.86868 64.6486 11.7475 64.6486H16.8824C18.7612 64.6486 20.5798 64.0869 22.131 63.0238L27.4398 59.4L22.131 55.7761C20.5798 54.7197 18.7612 54.158 16.8824 54.158H11.7475C9.86868 54.158 8.05008 54.7197 6.4989 55.7761L1.19013 59.4Z" fill="white"/>
<path d="M107.252 65.5246H102.117C100.105 65.5246 98.1589 64.9228 96.4874 63.7862L90.3696 59.614L96.4874 55.4419C98.1522 54.3052 100.098 53.7035 102.117 53.7035H107.252C109.271 53.7035 111.217 54.3052 112.882 55.4419L118.999 59.614L112.882 63.7862C111.217 64.9228 109.271 65.5246 107.252 65.5246ZM91.5664 59.614L96.8752 63.2379C98.4264 64.2943 100.245 64.856 102.124 64.856H107.259C109.137 64.856 110.956 64.2943 112.507 63.2379L117.816 59.614L112.507 55.9901C110.949 54.9271 109.137 54.3654 107.259 54.3654H102.124C100.245 54.3654 98.4264 54.9271 96.8752 55.9901L91.5664 59.614Z" fill="white"/>
<path d="M30.6348 87.9033L3.35071 115.188L3.82349 115.66L31.1076 88.3761L30.6348 87.9033Z" fill="white"/>
<path d="M115.181 3.35838L87.8967 30.6426L88.3694 31.1154L115.654 3.83116L115.181 3.35838Z" fill="white"/>
</svg>
