<svg width="138" height="139" viewBox="0 0 138 139" fill="none" xmlns="http://www.w3.org/2000/svg">
<g opacity="0.4">
<path d="M58.4095 41.2542L58.4115 41.2542C64.6393 42.4448 70.324 45.4705 74.8246 49.9875L74.8265 49.9895L87.0677 62.2249L87.0697 62.2268C91.5637 66.6878 94.5824 72.4434 95.8207 78.6526L100.18 101.159L77.7631 96.8313L77.7611 96.8313C71.5332 95.6406 65.8486 92.615 61.348 88.0979L61.347 88.0959L49.1049 75.8606L49.1029 75.8586C44.6088 71.3975 41.5902 65.6422 40.3519 59.4329L35.9916 36.928L58.4095 41.2542Z" stroke="white" stroke-width="2"/>
<path d="M111.583 30.2095L111.583 27.4028C111.583 23.096 112.819 18.8809 115.159 15.2456L115.388 14.896L124.242 1.78467L133.146 14.9009C135.637 18.6194 137 22.9664 137 27.4028L137 30.2095C137 34.516 135.764 38.7306 133.425 42.3657L133.194 42.7153L124.34 55.8286L115.436 42.7104C113.027 39.162 111.669 34.9249 111.587 30.6255L111.583 30.2095Z" stroke="white" stroke-width="2"/>
<path d="M14.8926 116.422C18.6086 113.93 22.9526 112.565 27.3857 112.565L30.1904 112.565C34.6317 112.565 38.9752 113.883 42.6855 116.372L55.793 125.235L42.6836 134.145L42.3379 134.374C38.748 136.717 34.4901 138 30.1904 138L27.3857 138C22.9446 138 18.6009 136.683 14.8906 134.194L1.78223 125.332L14.8926 116.422Z" stroke="white" stroke-width="2"/>
</g>
</svg>
