<svg width="101" height="160" viewBox="0 0 101 160" fill="none" xmlns="http://www.w3.org/2000/svg">
<g opacity="0.4">
<path d="M40.5269 38.8386L35.5688 48.4812C30.5084 58.3298 20.3939 64.6366 9.22705 64.8982L8.69385 64.906L2.42822 64.9402L40.5269 26.8416L40.5269 38.8386Z" stroke="white" stroke-width="2"/>
<path d="M91.2426 64.9539C79.9151 65.0229 69.4988 58.9408 64.1517 49.1472L64.1488 49.1414L58.4047 38.7888L58.4047 26.7898L97.7064 64.9011L91.2426 64.9539Z" stroke="white" stroke-width="2"/>
<path d="M40.5269 109.678L35.5688 119.321C30.5084 129.169 20.3939 135.476 9.22705 135.738L8.69385 135.746L2.42822 135.78L40.5269 97.6812L40.5269 109.678Z" stroke="white" stroke-width="2"/>
<path d="M91.2426 135.793C79.9151 135.863 69.4988 129.78 64.1517 119.987L64.1488 119.981L58.4047 109.628L58.4047 97.6294L97.7064 135.741L91.2426 135.793Z" stroke="white" stroke-width="2"/>
<path d="M49.8264 159.75L47.884 159.75L47.884 0.25L49.8264 0.25L49.8264 159.75Z" fill="white" stroke="white" stroke-width="0.5"/>
</g>
</svg>
