<svg width="32" height="32" viewBox="0 0 32 32" fill="none" xmlns="http://www.w3.org/2000/svg">
<path d="M7.9989 29.3297V5.33282C7.9989 4.62567 8.27982 3.94748 8.77985 3.44745C9.27988 2.94742 9.95807 2.6665 10.6652 2.6665H21.3305C22.0376 2.6665 22.7158 2.94742 23.2159 3.44745C23.7159 3.94748 23.9968 4.62567 23.9968 5.33282V29.3297H7.9989Z" stroke="white" stroke-opacity="0.9" stroke-width="2.66632" stroke-linecap="round" stroke-linejoin="round"/>
<path d="M7.99889 15.998H5.33258C4.62543 15.998 3.94724 16.279 3.44721 16.779C2.94717 17.279 2.66626 17.9572 2.66626 18.6644V26.6633C2.66626 27.3705 2.94717 28.0487 3.44721 28.5487C3.94724 29.0487 4.62543 29.3296 5.33258 29.3296H7.99889" stroke="white" stroke-opacity="0.9" stroke-width="2.66632" stroke-linecap="round" stroke-linejoin="round"/>
<path d="M23.9968 11.9985H26.6631C27.3703 11.9985 28.0485 12.2795 28.5485 12.7795C29.0485 13.2795 29.3295 13.9577 29.3295 14.6649V26.6633C29.3295 27.3704 29.0485 28.0486 28.5485 28.5486C28.0485 29.0487 27.3703 29.3296 26.6631 29.3296H23.9968" stroke="white" stroke-opacity="0.9" stroke-width="2.66632" stroke-linecap="round" stroke-linejoin="round"/>
<path d="M13.3315 7.99902H18.6642" stroke="white" stroke-opacity="0.9" stroke-width="2.66632" stroke-linecap="round" stroke-linejoin="round"/>
<path d="M13.3315 13.3315H18.6642" stroke="white" stroke-opacity="0.9" stroke-width="2.66632" stroke-linecap="round" stroke-linejoin="round"/>
<path d="M13.3315 18.6641H18.6642" stroke="white" stroke-opacity="0.9" stroke-width="2.66632" stroke-linecap="round" stroke-linejoin="round"/>
<path d="M13.3315 23.9971H18.6642" stroke="white" stroke-opacity="0.9" stroke-width="2.66632" stroke-linecap="round" stroke-linejoin="round"/>
</svg>
