<svg width="32" height="32" viewBox="0 0 32 32" fill="none" xmlns="http://www.w3.org/2000/svg">
<path d="M20.6333 17.1846L22.653 28.5511C22.6756 28.6849 22.6568 28.8225 22.5992 28.9454C22.5415 29.0682 22.4477 29.1706 22.3303 29.2387C22.2129 29.3068 22.0775 29.3375 21.9422 29.3266C21.8069 29.3157 21.6781 29.2637 21.5731 29.1777L16.8004 25.5955C16.57 25.4233 16.2901 25.3303 16.0025 25.3303C15.7149 25.3303 15.4351 25.4233 15.2046 25.5955L10.4239 29.1763C10.3191 29.2622 10.1905 29.3141 10.0553 29.325C9.92018 29.336 9.78492 29.3054 9.66759 29.2375C9.55026 29.1695 9.45644 29.0674 9.39864 28.9448C9.34083 28.8222 9.3218 28.6848 9.34408 28.5511L11.3625 17.1846" stroke="white" stroke-opacity="0.9" stroke-width="2.66632" stroke-linecap="round" stroke-linejoin="round"/>
<path d="M15.9979 18.6644C20.4156 18.6644 23.9969 15.0832 23.9969 10.6655C23.9969 6.24776 20.4156 2.6665 15.9979 2.6665C11.5802 2.6665 7.99896 6.24776 7.99896 10.6655C7.99896 15.0832 11.5802 18.6644 15.9979 18.6644Z" stroke="white" stroke-opacity="0.9" stroke-width="2.66632" stroke-linecap="round" stroke-linejoin="round"/>
</svg>
