<svg width="32" height="32" viewBox="0 0 32 32" fill="none" xmlns="http://www.w3.org/2000/svg">
<path d="M21.3305 26.6634V5.33282C21.3305 4.62567 21.0496 3.94748 20.5496 3.44745C20.0495 2.94742 19.3714 2.6665 18.6642 2.6665H13.3316C12.6244 2.6665 11.9462 2.94742 11.4462 3.44745C10.9462 3.94748 10.6653 4.62567 10.6653 5.33282V26.6634" stroke="white" stroke-opacity="0.9" stroke-width="2.66632" stroke-linecap="round" stroke-linejoin="round"/>
<path d="M26.6632 7.99902H5.33264C3.86007 7.99902 2.66632 9.19277 2.66632 10.6653V23.9969C2.66632 25.4695 3.86007 26.6632 5.33264 26.6632H26.6632C28.1357 26.6632 29.3295 25.4695 29.3295 23.9969V10.6653C29.3295 9.19277 28.1357 7.99902 26.6632 7.99902Z" stroke="white" stroke-opacity="0.9" stroke-width="2.66632" stroke-linecap="round" stroke-linejoin="round"/>
</svg>
