<svg width="141" height="141" viewBox="0 0 141 141" fill="none" xmlns="http://www.w3.org/2000/svg">
<path opacity="0.5" d="M70.0229 33.7299L74.6252 26.7946C75.861 24.9295 76.5135 22.7409 76.4904 20.5004L76.4384 14.5873C76.4211 12.3525 75.7339 10.1755 74.4635 8.32765L69.7457 1.47327L65.1434 8.40849C63.9077 10.2737 63.2551 12.4622 63.2782 14.7027L63.3302 20.6159C63.3476 22.8506 64.0347 25.0334 65.3051 26.8755L70.0229 33.7299Z" stroke="white" stroke-width="1.65" stroke-miterlimit="10"/>
<path d="M96.4008 25.0334L97.0707 24.3462C98.1852 23.2086 98.9358 21.765 99.2303 20.2001L100.304 14.3678L94.4952 15.54C92.9303 15.8576 91.504 16.6314 90.3837 17.769L89.7139 18.4562C88.5994 19.5938 87.8429 21.0374 87.5542 22.6023L86.4802 28.4346L92.2894 27.2623C93.8485 26.9447 95.2805 26.171 96.4008 25.0334Z" fill="white"/>
<path d="M43.2751 24.733L43.9622 25.4029C45.0998 26.5174 46.5434 27.2738 48.1083 27.5626L53.9406 28.6366L52.7684 22.8274C52.4508 21.2683 51.677 19.8362 50.5394 18.716L49.8522 18.0461C48.7147 16.9316 47.271 16.1809 45.7061 15.8864L39.8738 14.8124L41.0461 20.6216C41.3637 22.1865 42.1375 23.6128 43.2751 24.733Z" fill="white"/>
<path opacity="0.5" d="M75.653 114.071L70.9352 107.217L66.3329 114.152C65.0971 116.017 64.4446 118.206 64.4677 120.446L64.5197 126.359C64.537 128.594 65.2241 130.771 66.4945 132.619L71.2124 139.473L75.8147 132.538C77.0504 130.673 77.7029 128.484 77.6798 126.244L77.6279 120.331C77.6105 118.096 76.9234 115.913 75.653 114.071Z" stroke="white" stroke-width="1.65" stroke-miterlimit="10"/>
<path d="M44.5457 115.919L43.8758 116.606C42.7614 117.744 42.0106 119.187 41.7161 120.752L40.6421 126.585L46.4513 125.412C48.0162 125.095 49.4425 124.321 50.5627 123.183L51.2326 122.496C52.3471 121.359 53.1035 119.915 53.3923 118.35L54.4663 112.518L48.6572 113.69C47.098 114.008 45.6659 114.781 44.5457 115.919Z" fill="white"/>
<path d="M97.6771 116.219L96.9899 115.549C95.8523 114.435 94.4087 113.678 92.8438 113.39L87.0115 112.316L88.1837 118.125C88.5013 119.684 89.2751 121.116 90.4127 122.236L91.0999 122.906C92.2374 124.021 93.6811 124.771 95.246 125.066L101.078 126.14L99.906 120.331C99.5884 118.766 98.8146 117.34 97.6771 116.219Z" fill="white"/>
<path opacity="0.5" d="M132.538 65.1434C130.673 63.9076 128.484 63.2551 126.244 63.2782L120.331 63.3302C118.096 63.3475 115.913 64.0346 114.071 65.305L107.217 70.0228L114.152 74.6252C116.017 75.8609 118.206 76.5134 120.446 76.4903L126.359 76.4384C128.594 76.421 130.771 75.7339 132.619 74.4635L139.473 69.7457L132.538 65.1434Z" stroke="white" stroke-width="1.65" stroke-miterlimit="10"/>
<path d="M123.183 90.3838L122.496 89.714C121.359 88.5995 119.915 87.843 118.35 87.5543L112.518 86.4802L113.69 92.2894C114.008 93.8485 114.781 95.2806 115.919 96.4009L116.606 97.0707C117.744 98.1852 119.187 98.9359 120.752 99.2304L126.585 100.304L125.412 94.4953C125.095 92.9304 124.321 91.5041 123.183 90.3838Z" fill="white"/>
<path d="M122.236 50.534L122.906 49.8468C124.021 48.7092 124.771 47.2656 125.066 45.7007L126.14 39.8684L120.331 41.0406C118.766 41.3582 117.339 42.132 116.219 43.2696L115.549 43.9568C114.435 45.0944 113.678 46.538 113.39 48.1029L112.316 53.9352L118.125 52.763C119.684 52.4454 121.116 51.6716 122.236 50.534Z" fill="white"/>
<path opacity="0.5" d="M26.8754 75.6473L33.7298 70.9295L26.7946 66.3272C24.9294 65.0914 22.7408 64.4389 20.5003 64.462L14.5872 64.514C12.3525 64.5313 10.1755 65.2185 8.3276 66.4889L1.47321 71.2067L8.40843 75.809C10.2736 77.0447 12.4622 77.6973 14.7027 77.6742L20.6158 77.6222C22.8506 77.6049 25.0333 76.9177 26.8754 75.6473Z" stroke="white" stroke-width="1.65" stroke-miterlimit="10"/>
<path d="M17.769 50.5626L18.4562 51.2325C19.5938 52.347 21.0374 53.1034 22.6023 53.3922L28.4346 54.4662L27.2623 48.657C26.9447 47.0979 26.171 45.6658 25.0334 44.5456L24.3462 43.8757C23.2086 42.7612 21.765 42.0105 20.2001 41.716L14.3678 40.642L15.54 46.4512C15.8576 48.0161 16.6314 49.4424 17.769 50.5626Z" fill="white"/>
<path d="M25.403 96.99C26.5175 95.8524 27.274 94.4088 27.5627 92.8439L28.6368 87.0116L22.8276 88.1838C21.2684 88.5014 19.8364 89.2752 18.7161 90.4128L18.0462 91.1C16.9318 92.2376 16.1811 93.6812 15.8866 95.2461L14.8125 101.078L20.6217 99.9061C22.1866 99.5885 23.6129 98.8148 24.7332 97.6772L25.403 96.99Z" fill="white"/>
<path opacity="0.5" d="M35.8723 107.344L3.93335 139.282" stroke="white" stroke-width="1.65" stroke-miterlimit="10"/>
<path opacity="0.5" d="M134.836 8.37964L102.897 40.3186" stroke="white" stroke-width="1.65" stroke-miterlimit="10"/>
<path opacity="0.5" d="M35.8723 40.3186L3.93335 8.37964" stroke="white" stroke-width="1.65" stroke-miterlimit="10"/>
<path opacity="0.5" d="M134.836 139.282L102.897 107.344" stroke="white" stroke-width="1.65" stroke-miterlimit="10"/>
</svg>
