<svg width="427" height="427" viewBox="0 0 427 427" fill="none" xmlns="http://www.w3.org/2000/svg">
<path d="M211.82 302.62L180.18 271.41L178.89 272.72L178.94 273.24C180.4 286.57 188.81 298.12 201.04 303.6L211.86 308.45L222.03 303.79C234.35 298.15 242.7 286.34 243.91 272.85L244.01 272.23L242.89 271.13L211.81 302.64L211.82 302.62Z" fill="#80A5E0"/>
<path d="M211.08 128.07L242.72 159.28L244.01 157.97L243.96 157.45C242.5 144.12 234.09 132.57 221.86 127.09L211.04 122.24L200.87 126.9C188.55 132.54 180.2 144.35 178.99 157.84L178.89 158.46L180.01 159.56L211.09 128.05L211.08 128.07Z" fill="#80A5E0"/>
<path d="M124.18 215.71L155.39 184.07L154.08 182.78L153.56 182.83C140.23 184.29 128.68 192.7 123.2 204.93L118.35 215.75L123.01 225.92C128.65 238.24 140.46 246.59 153.95 247.8L154.57 247.9L155.67 246.78L124.16 215.7L124.18 215.71Z" fill="#80A5E0"/>
<path d="M298.72 214.98L267.51 246.62L268.82 247.91L269.34 247.86C282.67 246.4 294.22 237.99 299.7 225.76L304.55 214.94L299.89 204.77C294.25 192.45 282.44 184.1 268.95 182.89L268.33 182.79L267.23 183.91L298.74 214.99L298.72 214.98Z" fill="#80A5E0"/>
<path d="M304.17 147.03L303.31 147.91C301.88 149.36 300.92 151.21 300.55 153.21L299.18 160.66L306.6 159.16C308.6 158.75 310.42 157.76 311.85 156.31L312.71 155.43C314.14 153.98 315.1 152.13 315.47 150.13L316.84 142.68L309.42 144.18C307.42 144.58 305.6 145.58 304.17 147.03Z" fill="#00B5C2"/>
<path d="M362.77 155.52L363.65 156.38C365.1 157.81 366.95 158.77 368.95 159.14L376.4 160.51L374.9 153.09C374.49 151.09 373.5 149.27 372.05 147.84L371.17 146.98C369.72 145.55 367.87 144.59 365.87 144.22L358.42 142.85L359.92 150.27C360.32 152.27 361.32 154.09 362.77 155.52Z" fill="#00B5C2"/>
<path d="M371.42 30.97L372.28 30.09C373.71 28.64 374.67 26.79 375.04 24.79L376.41 17.34L368.99 18.84C366.99 19.25 365.17 20.24 363.74 21.69L362.88 22.57C361.45 24.02 360.49 25.87 360.12 27.87L358.75 35.32L366.17 33.82C368.17 33.42 369.99 32.42 371.42 30.97Z" fill="#00B5C2"/>
<path d="M312.81 22.49L311.93 21.63C310.48 20.2 308.63 19.24 306.63 18.87L299.18 17.5L300.68 24.92C301.09 26.92 302.08 28.74 303.53 30.17L304.41 31.03C305.86 32.46 307.71 33.42 309.71 33.79L317.16 35.16L315.66 27.74C315.26 25.74 314.26 23.92 312.81 22.49Z" fill="#00B5C2"/>
<path d="M279.76 55.38L278.88 54.52C277.43 53.09 275.58 52.13 273.58 51.76L266.13 50.39L267.63 57.81C268.04 59.81 269.03 61.63 270.48 63.06L271.36 63.92C272.81 65.35 274.66 66.31 276.66 66.68L284.11 68.05L282.61 60.63C282.21 58.63 281.21 56.81 279.76 55.38Z" fill="#00B5C2"/>
<path d="M271.28 113.98L270.42 114.86C268.99 116.31 268.03 118.16 267.66 120.16L266.29 127.61L273.71 126.11C275.71 125.7 277.53 124.71 278.96 123.26L279.82 122.38C281.25 120.93 282.21 119.08 282.58 117.08L283.95 109.63L276.53 111.13C274.53 111.53 272.71 112.53 271.28 113.98Z" fill="#00B5C2"/>
<path d="M395.83 122.63L396.71 123.49C398.16 124.92 400.01 125.88 402.01 126.25L409.46 127.62L407.96 120.2C407.55 118.2 406.56 116.38 405.11 114.95L404.23 114.09C402.78 112.66 400.93 111.7 398.93 111.33L391.48 109.96L392.98 117.38C393.38 119.38 394.38 121.2 395.83 122.63Z" fill="#00B5C2"/>
<path d="M404.31 64.02L405.17 63.14C406.6 61.69 407.56 59.84 407.93 57.84L409.3 50.39L401.88 51.89C399.88 52.3 398.06 53.29 396.63 54.74L395.77 55.62C394.34 57.07 393.38 58.92 393.01 60.92L391.64 68.37L399.06 66.87C401.06 66.47 402.88 65.47 404.31 64.02Z" fill="#00B5C2"/>
<path d="M78.54 295.17C78.51 290.35 75.79 285.96 71.5 283.78L67.41 281.7H61.33L78.56 298.74L78.54 295.17Z" fill="#00B5C2"/>
<path d="M71.81 272.88C76.02 270.62 78.63 266.22 78.6 261.44L78.57 257.8L61.33 275.28H67.41L71.81 272.88Z" fill="#00B5C2"/>
<path d="M107.72 298.54L107.7 294.98C107.67 290.16 104.95 285.77 100.66 283.59L96.57 281.51H90.49L107.72 298.55V298.54Z" fill="#00B5C2"/>
<path d="M100.97 272.68C105.18 270.42 107.79 266.02 107.76 261.24L107.73 257.6L90.49 275.08H96.57L100.97 272.68Z" fill="#00B5C2"/>
<path d="M90.48 389.05C90.51 393.87 93.23 398.26 97.52 400.44L101.61 402.52H107.69L90.46 385.48L90.48 389.05Z" fill="#00B5C2"/>
<path d="M97.21 411.34C93 413.6 90.39 418 90.42 422.78L90.45 426.42L107.69 408.94H101.61L97.21 411.34Z" fill="#00B5C2"/>
<path d="M61.3 385.69L61.32 389.25C61.35 394.07 64.07 398.46 68.36 400.64L72.45 402.72H78.53L61.3 385.68V385.69Z" fill="#00B5C2"/>
<path d="M68.06 411.54C63.85 413.8 61.24 418.2 61.27 422.98L61.3 426.62L78.54 409.14H72.46L68.06 411.54Z" fill="#00B5C2"/>
<path d="M37.57 348.08C32.75 348.11 28.36 350.83 26.18 355.12L24.1 359.21V365.29L41.14 348.06L37.58 348.08H37.57Z" fill="#00B5C2"/>
<path d="M15.28 354.81C13.02 350.6 8.62001 347.99 3.84001 348.02L0.200012 348.05L17.68 365.29V359.21L15.28 354.81Z" fill="#00B5C2"/>
<path d="M40.93 318.9L37.37 318.92C32.55 318.95 28.16 321.67 25.98 325.96L23.9 330.05V336.13L40.94 318.9H40.93Z" fill="#00B5C2"/>
<path d="M15.08 325.66C12.82 321.45 8.42 318.84 3.64 318.87L0 318.9L17.48 336.14V330.06L15.08 325.66Z" fill="#00B5C2"/>
<path d="M131.45 336.14C136.27 336.11 140.66 333.39 142.84 329.1L144.92 325.01V318.93L127.88 336.16L131.44 336.14H131.45Z" fill="#00B5C2"/>
<path d="M153.74 329.41C156 333.62 160.4 336.23 165.18 336.2L168.82 336.17L151.34 318.93V325.01L153.74 329.41Z" fill="#00B5C2"/>
<path d="M128.09 365.32L131.65 365.3C136.47 365.27 140.86 362.55 143.04 358.26L145.12 354.17V348.09L128.08 365.32H128.09Z" fill="#00B5C2"/>
<path d="M153.94 358.57C156.2 362.78 160.6 365.39 165.38 365.36L169.02 365.33L151.54 348.09V354.17L153.94 358.57Z" fill="#00B5C2"/>
<path d="M168.278 257.812L127.471 298.619L128.178 299.326L168.985 258.519L168.278 257.812Z" fill="black"/>
<path d="M128.182 131.359L127.475 132.066L168.282 172.873L168.989 172.166L128.182 131.359Z" fill="black"/>
<path d="M254.615 257.809L253.908 258.516L294.715 299.323L295.422 298.616L254.615 257.809Z" fill="black"/>
<path d="M254.515 5.01976L253.808 5.72687L294.615 46.534L295.322 45.8269L254.515 5.01976Z" fill="black"/>
<path d="M380.962 131.46L380.255 132.167L421.062 172.974L421.769 172.267L380.962 131.46Z" fill="black"/>
<path d="M211.55 293.75L206.19 287.2C204.78 285.47 204.02 283.45 204.01 281.35L203.97 276.12C203.96 274.01 204.68 271.98 206.07 270.24C207.28 268.72 209.21 267.84 211.37 267.83C211.39 267.83 211.41 267.83 211.43 267.83C213.57 267.83 215.49 268.68 216.71 270.17C218.12 271.9 218.88 273.92 218.89 276.02L218.93 281.25C218.95 283.35 218.22 285.38 216.83 287.13L211.56 293.75H211.55ZM211.43 268.82H211.38C209.55 268.83 207.86 269.59 206.85 270.86C205.6 272.42 204.95 274.24 204.97 276.11L205.01 281.34C205.02 283.21 205.7 285.02 206.97 286.57L211.55 292.16L216.05 286.51C217.3 284.94 217.95 283.12 217.93 281.26L217.89 276.03C217.88 274.16 217.2 272.35 215.93 270.8C214.92 269.56 213.23 268.83 211.42 268.83L211.43 268.82Z" fill="black"/>
<path d="M211.47 162.87C209.33 162.87 207.41 162.02 206.19 160.53C204.78 158.8 204.02 156.78 204.01 154.68L203.97 149.45C203.96 147.35 204.68 145.32 206.07 143.57L211.34 136.95L216.7 143.5C218.11 145.23 218.87 147.25 218.88 149.35L218.92 154.58C218.93 156.69 218.21 158.72 216.82 160.46C215.61 161.98 213.68 162.86 211.52 162.87H211.46H211.47ZM211.36 138.53L206.86 144.18C205.61 145.75 204.96 147.57 204.97 149.43L205.01 154.66C205.02 156.53 205.7 158.34 206.97 159.89C207.99 161.14 209.69 161.85 211.52 161.86C213.35 161.85 215.04 161.09 216.05 159.82C217.3 158.26 217.95 156.44 217.93 154.57L217.89 149.34C217.88 147.47 217.2 145.66 215.93 144.11L211.35 138.52L211.36 138.53Z" fill="black"/>
<path d="M145.49 222.82C143.41 222.82 141.4 222.09 139.67 220.72L133.05 215.45L139.6 210.09C141.33 208.67 143.35 207.92 145.45 207.91L150.68 207.87C152.76 207.87 154.82 208.58 156.56 209.97C158.08 211.18 158.96 213.11 158.97 215.27C158.99 217.43 158.13 219.37 156.63 220.6C154.9 222.01 152.88 222.77 150.78 222.78L145.55 222.82H145.49ZM134.64 215.44L140.29 219.94C141.86 221.19 143.68 221.85 145.54 221.83L150.77 221.79C152.64 221.78 154.45 221.1 156 219.83C157.25 218.81 157.99 217.11 157.97 215.28C157.96 213.45 157.2 211.76 155.93 210.75C154.37 209.5 152.59 208.86 150.68 208.87L145.45 208.91C143.58 208.92 141.77 209.6 140.22 210.87L134.63 215.45L134.64 215.44Z" fill="black"/>
<path d="M272.16 222.82C270.08 222.82 268.06 222.09 266.34 220.72C264.82 219.51 263.94 217.58 263.93 215.42C263.92 213.26 264.77 211.32 266.27 210.09C268 208.67 270.02 207.92 272.12 207.91L277.35 207.87H277.41C279.49 207.87 281.5 208.6 283.23 209.97L289.85 215.24L283.3 220.6C281.57 222.02 279.55 222.77 277.45 222.78L272.22 222.82H272.16ZM277.41 208.87H277.36L272.13 208.91C270.26 208.92 268.45 209.6 266.9 210.87C265.65 211.89 264.91 213.6 264.93 215.42C264.95 217.24 265.7 218.94 266.97 219.95C268.52 221.18 270.31 221.83 272.17 221.83H272.22L277.45 221.79C279.32 221.78 281.13 221.1 282.68 219.83L288.27 215.25L282.62 210.75C281.07 209.52 279.27 208.86 277.42 208.86L277.41 208.87Z" fill="black"/>
<path d="M337.63 177.99L331.39 168.84C329.69 166.35 328.79 163.44 328.79 160.42V152.74C328.79 149.73 329.69 146.82 331.39 144.32L337.63 135.17L343.87 144.32C345.57 146.81 346.47 149.72 346.47 152.74V160.42C346.47 163.44 345.57 166.35 343.87 168.84L337.63 177.99ZM337.63 136.95L332.22 144.89C330.63 147.21 329.8 149.93 329.8 152.74V160.42C329.8 163.23 330.64 165.95 332.22 168.27L337.63 176.21L343.05 168.27C344.64 165.95 345.48 163.23 345.48 160.42V152.74C345.48 149.93 344.64 147.21 343.05 144.89L337.63 136.95Z" fill="black"/>
<path d="M337.95 42.82L331.71 33.67C330.01 31.18 329.11 28.27 329.11 25.25V17.57C329.11 14.55 330.01 11.64 331.71 9.15L337.95 0L344.19 9.15C345.89 11.64 346.79 14.55 346.79 17.57V25.25C346.79 28.27 345.89 31.18 344.19 33.67L337.95 42.82ZM337.95 1.79L332.53 9.73C330.94 12.05 330.1 14.77 330.1 17.58V25.26C330.1 28.07 330.94 30.79 332.53 33.11L337.95 41.05L343.36 33.11C344.95 30.79 345.78 28.07 345.78 25.26V17.58C345.78 14.77 344.94 12.05 343.36 9.73L337.95 1.79Z" fill="black"/>
<path d="M274.05 97.69H266.37C263.35 97.69 260.44 96.79 257.95 95.09L248.8 88.85L257.95 82.61C260.44 80.91 263.35 80.01 266.37 80.01H274.05C277.06 80.01 279.97 80.91 282.47 82.61L291.62 88.85L282.47 95.09C279.98 96.79 277.07 97.69 274.05 97.69ZM250.58 88.84L258.52 94.26C260.85 95.85 263.56 96.69 266.37 96.69H274.05C276.86 96.69 279.58 95.85 281.9 94.26L289.84 88.84L281.9 83.42C279.58 81.84 276.86 81 274.05 81H266.37C263.56 81 260.84 81.84 258.52 83.42L250.58 88.84Z" fill="black"/>
<path d="M409.21 98H401.53C398.52 98 395.61 97.1 393.11 95.4L383.96 89.16L393.11 82.92C395.6 81.22 398.51 80.32 401.53 80.32H409.21C412.23 80.32 415.14 81.22 417.63 82.92L426.78 89.16L417.63 95.4C415.14 97.1 412.23 98 409.21 98ZM385.75 89.16L393.69 94.58C396.01 96.16 398.73 97 401.54 97H409.22C412.03 97 414.75 96.16 417.07 94.58L425.01 89.16L417.07 83.74C414.74 82.15 412.03 81.31 409.22 81.31H401.54C398.73 81.31 396.01 82.15 393.69 83.74L385.75 89.16Z" fill="black"/>
<path d="M117.42 278H51.6V279H117.42V278Z" fill="black"/>
<path d="M117.42 405.22H51.6V406.22H117.42V405.22Z" fill="black"/>
<path d="M21.4 309.2H20.4V375.02H21.4V309.2Z" fill="black"/>
<path d="M148.62 309.2H147.62V375.02H148.62V309.2Z" fill="black"/>
<path d="M294.618 131.47L253.811 172.278L254.518 172.985L295.325 132.178L294.618 131.47Z" fill="black"/>
<path d="M421.068 5.02318L380.261 45.8303L380.968 46.5374L421.775 5.73028L421.068 5.02318Z" fill="black"/>
</svg>
