<svg width="226" height="79" viewBox="0 0 226 79" fill="none" xmlns="http://www.w3.org/2000/svg">
<g clip-path="url(#clip0_266_430)">
<path d="M193.62 0.0100021V78.44H225.89V32.27C225.89 14.45 211.44 0 193.62 0V0.0100021ZM214.67 20.6C215.29 20.6 215.9 20.78 216.42 21.13L218.34 22.43L216.42 23.73C215.9 24.08 215.29 24.27 214.67 24.27H214.29C213.67 24.27 213.06 24.09 212.54 23.74L210.62 22.44L212.54 21.14C213.06 20.79 213.67 20.6 214.29 20.6H214.67ZM205.24 16.11C205.4 15.25 205.82 14.46 206.44 13.84L208.07 12.2C208.69 11.58 209.48 11.16 210.34 10.99L213.54 10.37L212.93 13.57C212.76 14.43 212.35 15.22 211.73 15.84L210.1 17.48C209.48 18.1 208.69 18.52 207.83 18.69L204.63 19.31L205.24 16.11ZM200.31 7.63L201.61 5.71L202.91 7.63C203.26 8.15 203.45 8.76 203.45 9.38V9.76C203.45 10.38 203.27 10.99 202.92 11.51L201.62 13.43L200.32 11.51C199.97 10.99 199.78 10.38 199.78 9.76V9.38C199.78 8.76 199.96 8.15 200.31 7.63ZM197.9 28.18H221.59V30.96H197.9V28.18ZM209.8 46.3L219.39 36.71L219.73 37.05L219.7 37.24C219.3 41.37 216.72 44.97 212.93 46.67L209.8 48.08L206.5 46.57C202.76 44.86 200.21 41.31 199.79 37.22L199.77 37.06L200.17 36.66L209.8 46.29V46.3ZM207.67 39.77V38.17C207.67 37.56 207.89 36.97 208.29 36.47C209.01 35.58 210.59 35.58 211.31 36.47C211.72 36.97 211.93 37.56 211.93 38.17V39.77C211.93 40.38 211.71 40.97 211.31 41.47L209.8 43.34L208.29 41.47C207.88 40.97 207.67 40.38 207.67 39.77ZM219.84 67.8H216.88L211.56 73.12V72.01C211.56 70.55 212.37 69.2 213.66 68.52L215.01 67.81H207.94L202.62 73.13V72.02C202.62 70.56 203.43 69.21 204.72 68.53L206.05 67.82H199.66V65.84H206L204.75 65.19C203.44 64.51 202.62 63.16 202.62 61.68V60.59L207.86 65.83H214.93L213.68 65.18C212.37 64.5 211.55 63.15 211.55 61.67V60.58L216.79 65.82H219.82V67.8H219.84ZM221.6 55.6H197.91V52.82H221.6V55.6Z" fill="white"/>
<path d="M165.51 64.57C163.62 64.89 160.38 64.87 157.24 64.87H139.7C138.58 64.68 138.13 63.9 138.2 63.46C138.65 63.44 139.11 63.55 139.63 63.61C141.17 63.79 142.7 63.2 143.76 62.07C144.36 61.43 145.01 60.81 145.52 60.53V60.31C138.72 59.6 126.54 51.86 120.1 54.42C117.9 55.3 115.67 58.34 115.21 60.2L115.34 60.34C116.73 59.16 117.52 58.46 120.06 58.26C126 57.78 131.44 61.04 136.95 62.84C135.65 63.96 134.42 64.87 127.85 64.87H107.12C105.51 64.86 102.96 65 101.2 63.21C99.27 61.25 99.81 58.42 99.81 56.81V54.6H99.14C98.06 56.2 96.47 59.19 92.55 59.21H91.73C89.37 59.21 87.76 59.16 85.39 57.04H85.18C85.08 59.02 84.57 60.27 83.37 62.33C85.25 64.02 87.14 64.42 89.41 64.51V64.93C89.08 70.31 83.23 74.88 71.79 74.63V74.86C72.35 75.07 73.09 75.42 73.98 75.9C75.12 76.49 76.86 77.74 77.71 78.01C78.56 78.28 79.45 78.42 80.38 78.42C82.14 78.42 83.75 77.87 85.22 76.76C86.69 75.65 87.86 74.01 88.74 71.84C89.57 69.8 90 67.36 90.05 64.53C90.49 64.53 90.94 64.54 91.4 64.54C91.4 64.54 91.4 64.54 91.41 64.54C97.09 64.54 98.66 60.15 98.66 57.48L98.79 57.46C98.79 57.46 98.77 58.02 98.77 58.36C98.77 60.18 98.13 65.22 100.72 68.03C102.41 69.87 104.63 70.03 106.9 70.03H124.94C131.22 70.03 134.56 66.86 136.4 64.54C136.83 63.96 137.24 63.67 137.64 63.53C137.66 66.34 138.41 70.02 142.47 70.02C142.75 70.02 161.14 70.02 161.14 70.02C165.95 68.2 168.87 61.57 168.87 59.39V42.56L165.5 44.86V64.54L165.51 64.57Z" fill="white"/>
<path d="M74.65 36.82C76.58 36.82 78.12 36.32 79.25 35.33C80.38 34.33 81.02 32.97 81.16 31.23L81.3 31.21C81.49 32.02 81.63 32.35 81.65 33.13C81.65 33.19 81.65 33.48 81.65 33.56C81.49 38.95 76.08 43.9 64.64 44.39V44.62C65.24 44.79 65.99 45.09 66.91 45.52C68.08 46.03 69.9 47.16 70.77 47.38C71.64 47.59 72.54 47.67 73.47 47.61C75.23 47.5 76.8 46.84 78.19 45.64C79.58 44.44 80.66 42.73 81.37 40.5C82.03 38.44 82.3 35.97 82.29 33.34C82.29 33.25 82.3 32.8 82.3 32.61C82.3 30.18 82.03 28.08 81.48 26.33C80.94 24.57 80.16 23.22 79.14 22.28C78.12 21.34 76.9 20.87 75.5 20.87C74.22 20.87 73.08 21.32 72.09 22.2C71.1 23.09 70.34 24.28 69.8 25.78C69.51 26.58 69.3 27.41 69.17 28.28C69.04 29.04 68.99 29.81 68.99 30.62C68.99 32.65 69.45 34.19 70.39 35.25C71.32 36.3 72.74 36.84 74.66 36.84L74.65 36.82ZM69.79 28.54C69.79 28.49 69.79 28.43 69.81 28.38C69.87 28 70.07 27.59 70.46 27.16C70.91 26.67 71.51 26.25 72.26 25.91C73.01 25.57 73.81 25.4 74.67 25.4C76.09 25.4 77.4 25.69 78.38 26.52C79.36 27.36 80.43 29.3 80.81 30.89H74.88C73.66 30.89 71.11 31 70.3 30.11C69.87 29.64 69.76 29.07 69.8 28.53L69.79 28.54Z" fill="white"/>
<path d="M88.12 37.74H94.49C99.71 37.74 99.49 32.48 98.67 30.05L98.82 29.98C100.58 35.14 102.32 37.73 106.48 37.73L123.04 37.72C129 37.66 132.27 34.74 134.13 32.47C134.13 32.47 134.83 31.58 135.28 30.97C135.31 30.98 135.54 31.11 135.87 31.23C135.89 34.04 136.63 37.73 140.7 37.73C140.96 37.73 141.35 37.73 141.4 37.73C142.4 37.71 143.2 37.44 143.82 36.91C144.47 36.36 144.95 35.72 145.27 34.99C145.59 34.26 145.91 33.35 146.21 32.27C146.24 32.14 146.3 31.93 146.39 31.62C146.48 31.31 146.57 31.05 146.65 30.85L146.84 30.87C146.61 31.91 146.51 32.8 146.54 33.54C146.59 34.42 146.95 35.23 147.66 35.96C148.36 36.69 149.28 37.27 150.41 37.68C151.46 38.07 152.77 38.27 154.81 38.3C154.97 38.3 155.14 38.3 155.31 38.3C155.31 38.3 155.68 37.87 156.11 37.1C156.67 36.08 157.32 34.47 157.32 32.46H157.5C157.63 34.22 158.08 35.54 158.85 36.41C159.2 36.8 159.62 37.1 160.07 37.3C160.42 37.45 160.78 37.53 161.15 37.53C161.38 37.53 162.76 36.9 163.27 36.35C166.81 33.74 168.88 28.73 168.88 26.9V9.78998L165.51 12.09V32.06C164.65 32.21 163.84 32.29 162.91 32.32C161.57 32.39 160.8 32.2 160.09 31.72C160.03 31.68 159.96 31.63 159.9 31.58C159.13 31 158.44 30.04 157.82 28.69C157.55 28.14 157.29 27.64 157.03 27.2C156.73 26.68 156.44 26.24 156.16 25.88C155.97 25.64 155.78 25.42 155.59 25.23C155.27 24.9 154.94 24.65 154.61 24.49C154.1 24.23 153.53 24.1 152.9 24.1C152.17 24.1 151.54 24.32 150.94 24.64C149.83 25.22 148.92 26.01 148.22 26.85C147.51 27.68 146.99 28.54 146.65 29.27C146.61 29.38 146.56 29.49 146.52 29.59C146.33 30 146.15 30.36 145.94 30.67C145.79 30.9 145.64 31.1 145.48 31.27C145.07 31.73 144.6 32.05 144.09 32.21C143.64 32.35 143.09 32.43 142.43 32.45C142.32 32.45 142.12 32.45 142.11 32.45C141.25 32.46 139.21 32.49 138.44 32.49C137.16 32.49 136.54 31.88 136.44 31.39C136.5 31.4 136.56 31.41 136.62 31.42C138.16 31.6 139.69 31.01 140.75 29.88C141.35 29.24 142 28.62 142.51 28.34V28.12C135.71 27.41 124.27 19.79 117.82 22.35C115.62 23.23 113.39 26.27 112.93 28.13L113.06 28.27C114.45 27.09 115.24 26.39 117.78 26.19C123.67 25.71 130.48 29.14 134.63 30.74C133.41 31.76 131.96 32.55 125.93 32.56H105.71C103.74 32.56 101.97 31.4 101.18 29.6L96.51 19.13C96.44 19.13 94.16 21.33 94.16 21.33C94.16 21.33 98.1 29.46 98.31 29.97C98.5 30.43 97.37 32.56 95.4 32.56H84.5V32.85C85.84 33.76 87.32 35.3 88.11 37.75L88.12 37.74ZM151.7 27.88C152.65 27.88 153.51 28.1 154.29 28.55C154.55 28.69 154.78 28.85 154.99 29.01C155.44 29.35 155.82 29.74 156.12 30.18C156.22 30.33 156.31 30.47 156.39 30.62C156.65 31.1 156.78 31.57 156.78 32.01V32.49C156.61 32.56 156.41 32.63 156.19 32.69C155.82 32.79 155.37 32.86 154.82 32.88C154.14 32.9 153.31 32.83 152.28 32.61C150.09 32.16 148.54 31.26 147.44 29.66C148.21 28.38 149.97 27.88 151.7 27.88Z" fill="white"/>
<path d="M57.94 61.7C57.94 61.7 57.94 62.81 57.94 62.84C58.01 64.66 58.25 66.11 58.67 67.19C59.1 68.29 59.7 69.08 60.48 69.55C61.25 70.03 62.21 70.09 63.37 70.09H63.39C65.08 70.09 66.42 70.09 67.86 69.93C67.86 69.93 68.42 69.86 68.84 69.8C71.27 69.45 72.46 69.01 73.04 68.78C74.56 68.18 75.73 67.06 76.54 65.64C77.09 64.68 77.38 63.72 77.38 63.72C78.06 61.64 78.22 59.42 77.84 57.27L77.38 54.64L74.08 57.11C74.08 57.11 76.19 61.33 76.39 63.07C76.46 63.7 76.35 64.08 75.83 64.23C75.59 64.3 74.75 64.4 73.92 64.51C70.57 64.95 66.05 64.9 64.88 64.9C63.58 64.9 62.6 64.71 61.93 63.98C61.27 63.25 60.94 62.12 60.94 60.58V50.17L57.56 52.47V54.52C53.69 56.52 50.7 58.19 48.91 61.13C48.36 62.04 47.19 66.58 47.19 66.58C47.19 66.58 47.58 67.5 49.51 67.5C50.69 67.5 51.81 67.52 52.44 67.52C53.87 67.52 55.35 67.06 56.18 66.13C57.02 65.2 57.54 63.72 57.75 61.7H57.93H57.94ZM56.61 62.13C56.13 62.37 55.63 62.49 52.96 62.49C51.64 62.49 50.08 62.5 49.25 62.05C49.25 62.05 49.83 60.58 51.66 59.39C52.75 58.67 55.02 57.11 57.57 55.83V59.87C57.57 60.37 57.53 61.11 57.15 61.65C57.01 61.84 56.83 62.01 56.6 62.12L56.61 62.13Z" fill="white"/>
<path d="M174.11 44.9V71.16C176.08 69.83 177.48 66.42 177.48 62.34V42.6L174.11 44.9Z" fill="white"/>
<path d="M128.244 42.093L124.341 45.9963L128.244 49.8995L132.147 45.9963L128.244 42.093Z" fill="white"/>
<path d="M177.48 29.82V9.78998L174.11 12.09V38.64C176.07 37.32 177.48 33.91 177.48 29.82Z" fill="white"/>
<path d="M48.69 47.55V47.73H56.71C57.94 47.73 59.07 47.11 59.77 46.1C60.22 45.45 60.75 44.97 61.25 44.63V44.45H50.97C50.47 45.99 49.53 46.97 48.68 47.55H48.69Z" fill="white"/>
<path d="M19.22 51.8C18.72 53.34 17.78 54.32 16.93 54.9V55.08H24.95C26.18 55.08 27.31 54.46 28.01 53.45C28.46 52.8 28.99 52.32 29.49 51.98V51.8H19.21H19.22Z" fill="white"/>
<path d="M59.85 74.57C59.35 76.11 58.41 77.09 57.56 77.67V77.85H65.58C66.81 77.85 67.94 77.23 68.64 76.22C69.09 75.57 69.62 75.09 70.12 74.75V74.57H59.84H59.85Z" fill="white"/>
<path d="M92.68 74.57C92.18 76.11 91.24 77.09 90.39 77.67V77.85H98.41C99.64 77.85 100.77 77.23 101.47 76.22C101.92 75.57 102.45 75.09 102.95 74.75V74.57H92.67H92.68Z" fill="white"/>
<path d="M50.18 37.74C50.18 37.74 50.19 37.74 50.2 37.74H54.01C56.71 37.74 59.39 37.43 62.02 36.83C63.51 34.07 65.12 32.53 65.45 32.2L65.41 31.99C63.36 32.73 59.72 32.56 56.51 32.56C53.56 32.29 49.29 29.34 49.17 28.01C49.1 27.27 50.7 24.79 56.51 24.79C60.8 24.79 61 25.66 61 26.74H61.23C61.41 26.16 61.5 25.56 61.5 24.96C61.5 23.73 61.09 22.75 60.28 22C59.47 21.26 58.32 20.88 56.86 20.88C53.71 20.88 48.6 22.92 48.6 28.5C48.6 30.36 49.21 31.77 49.97 32.56H36.97C35 32.56 33.06 32.25 31.77 32.02C31.3 33.21 30.54 34.91 29.46 36.37V36.6C30.1 36.79 30.82 36.95 31.59 37.07C32.36 37.2 33.5 37.36 34.99 37.54C39.19 38.06 40 38.28 41.01 38.71C41.64 38.98 41.95 39.01 41.95 39.38C41.95 39.88 41.44 40.07 40.44 40.57C39.44 41.07 37.93 41.49 35.89 41.84C33.85 42.19 28.41 42.37 25.47 42.37C15.49 42.37 6.86 41.2 0 36.52V37.13L3.86 44.25C3.86 44.25 10.73 47.72 24.64 47.72C27.85 47.72 33.52 47.38 35.76 46.72C38 46.05 39.69 45.09 40.84 43.86C41.95 42.67 42.51 41.28 42.54 39.4C42.54 39.32 42.54 39.25 42.54 39.17C42.54 38.6 42.45 38.16 42.16 37.75H50.16L50.18 37.74Z" fill="white"/>
</g>
<defs>
<clipPath id="clip0_266_430">
<rect width="226" height="79" fill="white"/>
</clipPath>
</defs>
</svg>
