<svg width="733" height="110" viewBox="0 0 733 110" fill="none" xmlns="http://www.w3.org/2000/svg">
<path d="M36.63 86.68C33.12 86.7 29.92 88.68 28.33 91.81L26.82 94.79V99.22L39.23 86.67L36.63 86.69V86.68Z" fill="#00B5C2"/>
<path d="M20.39 91.58C18.74 88.52 15.54 86.61 12.06 86.64L9.41003 86.66L22.15 99.22V94.79L20.4 91.59L20.39 91.58Z" fill="#00B5C2"/>
<path d="M39.08 65.42L36.48 65.44C32.97 65.46 29.77 67.44 28.18 70.57L26.67 73.55V77.98L39.08 65.43V65.42Z" fill="#00B5C2"/>
<path d="M20.24 70.34C18.59 67.28 15.39 65.37 11.91 65.4L9.26001 65.42L22 77.98V73.55L20.25 70.35L20.24 70.34Z" fill="#00B5C2"/>
<path d="M207.52 86.68C204.01 86.7 200.81 88.68 199.22 91.81L197.71 94.79V99.22L210.12 86.67L207.52 86.69V86.68Z" fill="#00B5C2"/>
<path d="M191.29 91.58C189.64 88.52 186.44 86.61 182.96 86.64L180.31 86.66L193.05 99.22V94.79L191.3 91.59L191.29 91.58Z" fill="#00B5C2"/>
<path d="M209.97 65.42L207.37 65.44C203.86 65.46 200.66 67.44 199.07 70.57L197.56 73.55V77.98L209.97 65.43V65.42Z" fill="#00B5C2"/>
<path d="M191.14 70.34C189.49 67.28 186.29 65.37 182.81 65.4L180.16 65.42L192.9 77.98V73.55L191.15 70.35L191.14 70.34Z" fill="#00B5C2"/>
<path d="M378.6 86.68C375.09 86.7 371.89 88.68 370.3 91.81L368.79 94.79V99.22L381.2 86.67L378.6 86.69V86.68Z" fill="#00B5C2"/>
<path d="M362.36 91.58C360.71 88.52 357.51 86.61 354.03 86.64L351.38 86.66L364.12 99.22V94.79L362.37 91.59L362.36 91.58Z" fill="#00B5C2"/>
<path d="M381.04 65.42L378.44 65.44C374.93 65.46 371.73 67.44 370.14 70.57L368.63 73.55V77.98L381.04 65.43V65.42Z" fill="#00B5C2"/>
<path d="M362.21 70.34C360.56 67.28 357.36 65.37 353.88 65.4L351.23 65.42L363.97 77.98V73.55L362.22 70.35L362.21 70.34Z" fill="#00B5C2"/>
<path d="M549.67 86.68C546.16 86.7 542.96 88.68 541.37 91.81L539.86 94.79V99.22L552.27 86.67L549.67 86.69V86.68Z" fill="#00B5C2"/>
<path d="M533.43 91.58C531.78 88.52 528.58 86.61 525.1 86.64L522.45 86.66L535.19 99.22V94.79L533.44 91.59L533.43 91.58Z" fill="#00B5C2"/>
<path d="M552.12 65.42L549.52 65.44C546.01 65.46 542.81 67.44 541.22 70.57L539.71 73.55V77.98L552.12 65.43V65.42Z" fill="#00B5C2"/>
<path d="M533.28 70.34C531.63 67.28 528.43 65.37 524.95 65.4L522.3 65.42L535.04 77.98V73.55L533.29 70.35L533.28 70.34Z" fill="#00B5C2"/>
<path d="M720.56 86.68C717.05 86.7 713.85 88.68 712.26 91.81L710.75 94.79V99.22L723.16 86.67L720.56 86.69V86.68Z" fill="#00B5C2"/>
<path d="M704.33 91.58C702.68 88.52 699.48 86.61 696 86.64L693.35 86.66L706.09 99.22V94.79L704.34 91.59L704.33 91.58Z" fill="#00B5C2"/>
<path d="M723.01 65.42L720.41 65.44C716.9 65.46 713.7 67.44 712.11 70.57L710.6 73.55V77.98L723.01 65.43V65.42Z" fill="#00B5C2"/>
<path d="M704.18 70.34C702.53 67.28 699.33 65.37 695.85 65.4L693.2 65.42L705.94 77.98V73.55L704.19 70.35L704.18 70.34Z" fill="#00B5C2"/>
<path d="M119.71 28.33C116.2 28.35 113 30.33 111.41 33.46L109.9 36.44V40.87L122.31 28.32L119.71 28.34V28.33Z" fill="#00B5C2"/>
<path d="M103.47 33.23C101.82 30.17 98.62 28.26 95.14 28.29L92.49 28.31L105.23 40.87V36.44L103.48 33.24L103.47 33.23Z" fill="#00B5C2"/>
<path d="M122.16 7.07001L119.56 7.09C116.05 7.11 112.85 9.08999 111.26 12.22L109.75 15.2V19.63L122.16 7.08V7.07001Z" fill="#00B5C2"/>
<path d="M103.32 11.99C101.67 8.92997 98.47 7.01997 94.99 7.04997L92.34 7.06997L105.08 19.63V15.2L103.33 12L103.32 11.99Z" fill="#00B5C2"/>
<path d="M291.36 28.33C287.85 28.35 284.65 30.33 283.06 33.46L281.55 36.44V40.87L293.96 28.32L291.36 28.34V28.33Z" fill="#00B5C2"/>
<path d="M275.12 33.23C273.47 30.17 270.27 28.26 266.79 28.29L264.14 28.31L276.88 40.87V36.44L275.13 33.24L275.12 33.23Z" fill="#00B5C2"/>
<path d="M293.81 7.07001L291.21 7.09C287.7 7.11 284.5 9.08999 282.91 12.22L281.4 15.2V19.63L293.81 7.08V7.07001Z" fill="#00B5C2"/>
<path d="M274.98 11.99C273.33 8.92997 270.13 7.01997 266.65 7.04997L264 7.06997L276.74 19.63V15.2L274.99 12L274.98 11.99Z" fill="#00B5C2"/>
<path d="M461.68 28.33C458.17 28.35 454.97 30.33 453.38 33.46L451.87 36.44V40.87L464.28 28.32L461.68 28.34V28.33Z" fill="#00B5C2"/>
<path d="M445.44 33.23C443.79 30.17 440.59 28.26 437.11 28.29L434.46 28.31L447.2 40.87V36.44L445.45 33.24L445.44 33.23Z" fill="#00B5C2"/>
<path d="M464.12 7.07001L461.52 7.09C458.01 7.11 454.81 9.08999 453.22 12.22L451.71 15.2V19.63L464.12 7.08V7.07001Z" fill="#00B5C2"/>
<path d="M445.29 11.99C443.64 8.92997 440.44 7.01997 436.96 7.04997L434.31 7.06997L447.05 19.63V15.2L445.3 12L445.29 11.99Z" fill="#00B5C2"/>
<path d="M633.51 28.33C630 28.35 626.8 30.33 625.21 33.46L623.7 36.44V40.87L636.11 28.32L633.51 28.34V28.33Z" fill="#00B5C2"/>
<path d="M617.27 33.23C615.62 30.17 612.42 28.26 608.94 28.29L606.29 28.31L619.03 40.87V36.44L617.28 33.24L617.27 33.23Z" fill="#00B5C2"/>
<path d="M635.96 7.07001L633.36 7.09C629.85 7.11 626.65 9.08999 625.06 12.22L623.55 15.2V19.63L635.96 7.08V7.07001Z" fill="#00B5C2"/>
<path d="M617.12 11.99C615.47 8.92997 612.27 7.01997 608.79 7.04997L606.14 7.06997L618.88 19.63V15.2L617.13 12L617.12 11.99Z" fill="#00B5C2"/>
<path d="M24.52 46.58L0.959999 23.35L0 24.32L0.0400009 24.7C1.12 34.62 7.39 43.22 16.49 47.3L24.54 50.91L32.11 47.44C41.28 43.24 47.49 34.45 48.4 24.4L48.47 23.94L47.64 23.12L24.51 46.58H24.52Z" fill="#80A5E0"/>
<path d="M107.6 104.77L84.04 81.54L83.08 82.51L83.12 82.89C84.2 92.81 90.47 101.41 99.57 105.49L107.62 109.1L115.19 105.63C124.36 101.43 130.57 92.64 131.48 82.59L131.55 82.13L130.72 81.31L107.59 104.77H107.6Z" fill="#80A5E0"/>
<path d="M366.48 46.58L342.92 23.35L341.96 24.32L342 24.7C343.08 34.62 349.35 43.22 358.45 47.3L366.5 50.91L374.07 47.44C383.24 43.24 389.45 34.45 390.36 24.4L390.43 23.94L389.6 23.12L366.47 46.58H366.48Z" fill="#80A5E0"/>
<path d="M449.56 104.77L426 81.54L425.04 82.51L425.08 82.89C426.16 92.81 432.43 101.41 441.53 105.49L449.58 109.1L457.15 105.63C466.32 101.43 472.53 92.64 473.44 82.59L473.51 82.13L472.68 81.31L449.55 104.77H449.56Z" fill="#80A5E0"/>
<path d="M708.45 46.58L684.89 23.35L683.93 24.32L683.97 24.7C685.05 34.62 691.32 43.22 700.42 47.3L708.47 50.91L716.04 47.44C725.21 43.24 731.42 34.45 732.33 24.4L732.4 23.94L731.57 23.12L708.44 46.58H708.45Z" fill="#80A5E0"/>
<path d="M170.1 20.76L169.46 21.42C168.4 22.5 167.68 23.87 167.41 25.37L166.39 30.92L171.92 29.8C173.41 29.5 174.77 28.76 175.83 27.68L176.47 27.02C177.53 25.94 178.25 24.56 178.52 23.07L179.54 17.52L174.01 18.64C172.52 18.94 171.16 19.68 170.1 20.76Z" fill="#00B5C2"/>
<path d="M213.74 27.08L214.4 27.72C215.48 28.78 216.85 29.5 218.35 29.77L223.9 30.79L222.78 25.26C222.48 23.77 221.74 22.41 220.66 21.35L220 20.71C218.92 19.65 217.54 18.93 216.05 18.66L210.5 17.64L211.62 23.17C211.92 24.66 212.66 26.02 213.74 27.08Z" fill="#00B5C2"/>
<path d="M253.94 78.83L253.3 79.49C252.24 80.57 251.52 81.94 251.25 83.44L250.23 88.99L255.76 87.87C257.25 87.57 258.61 86.83 259.67 85.75L260.31 85.09C261.37 84.01 262.09 82.63 262.36 81.14L263.38 75.59L257.85 76.71C256.36 77.01 255 77.75 253.94 78.83Z" fill="#00B5C2"/>
<path d="M297.58 85.14L298.24 85.78C299.32 86.84 300.69 87.56 302.19 87.83L307.74 88.85L306.62 83.32C306.32 81.83 305.58 80.47 304.5 79.41L303.84 78.77C302.76 77.71 301.38 76.99 299.89 76.72L294.34 75.7L295.46 81.23C295.76 82.72 296.5 84.08 297.58 85.14Z" fill="#00B5C2"/>
<path d="M512.24 20.76L511.6 21.42C510.54 22.5 509.82 23.87 509.55 25.37L508.53 30.92L514.06 29.8C515.55 29.5 516.91 28.76 517.97 27.68L518.61 27.02C519.67 25.94 520.39 24.56 520.66 23.07L521.68 17.52L516.15 18.64C514.66 18.94 513.3 19.68 512.24 20.76Z" fill="#00B5C2"/>
<path d="M555.89 27.08L556.55 27.72C557.63 28.78 559 29.5 560.5 29.77L566.05 30.79L564.93 25.26C564.63 23.77 563.89 22.41 562.81 21.35L562.15 20.71C561.07 19.65 559.69 18.93 558.2 18.66L552.65 17.64L553.77 23.17C554.07 24.66 554.81 26.02 555.89 27.08Z" fill="#00B5C2"/>
<path d="M596.08 78.83L595.44 79.49C594.38 80.57 593.66 81.94 593.39 83.44L592.37 88.99L597.9 87.87C599.39 87.57 600.75 86.83 601.81 85.75L602.45 85.09C603.51 84.01 604.23 82.63 604.5 81.14L605.52 75.59L599.99 76.71C598.5 77.01 597.14 77.75 596.08 78.83Z" fill="#00B5C2"/>
<path d="M639.72 85.14L640.38 85.78C641.46 86.84 642.83 87.56 644.33 87.83L649.88 88.85L648.76 83.32C648.46 81.83 647.72 80.47 646.64 79.41L645.98 78.77C644.9 77.71 643.52 76.99 642.03 76.72L636.48 75.7L637.6 81.23C637.9 82.72 638.64 84.08 639.72 85.14Z" fill="#00B5C2"/>
<path d="M25.13 58.36H23.84V106.31H25.13V58.36Z" fill="black"/>
<path d="M196.02 58.36H194.73V106.31H196.02V58.36Z" fill="black"/>
<path d="M367.1 58.36H365.81V106.31H367.1V58.36Z" fill="black"/>
<path d="M538.17 58.36H536.88V106.31H538.17V58.36Z" fill="black"/>
<path d="M709.06 58.36H707.77V106.31H709.06V58.36Z" fill="black"/>
<path d="M108.21 0H106.92V47.95H108.21V0Z" fill="black"/>
<path d="M279.86 0H278.57V47.95H279.86V0Z" fill="black"/>
<path d="M450.18 0H448.89V47.95H450.18V0Z" fill="black"/>
<path d="M622.01 0H620.72V47.95H622.01V0Z" fill="black"/>
<path d="M24.32 40.41L20.11 35.27C19.02 33.94 18.43 32.37 18.42 30.74L18.39 26.85C18.38 25.22 18.94 23.65 20.02 22.3C20.97 21.1 22.49 20.41 24.18 20.4H24.23C25.9 20.4 27.41 21.07 28.37 22.24C29.46 23.58 30.05 25.14 30.06 26.77L30.09 30.67C30.1 32.3 29.54 33.87 28.46 35.22L24.32 40.41ZM24.23 21.69H24.2C22.92 21.69 21.74 22.23 21.04 23.1C20.15 24.21 19.69 25.51 19.7 26.84L19.73 30.73C19.73 32.06 20.22 33.35 21.13 34.45L24.32 38.35L27.46 34.41C28.35 33.29 28.81 32 28.81 30.67L28.78 26.77C28.78 25.44 28.29 24.15 27.38 23.05C26.68 22.19 25.5 21.68 24.24 21.68L24.23 21.69Z" fill="black"/>
<path d="M107.4 98.6L103.19 93.46C102.1 92.13 101.51 90.56 101.5 88.93L101.47 85.03C101.46 83.4 102.02 81.83 103.1 80.48C104.05 79.28 105.57 78.59 107.26 78.58C107.27 78.58 107.29 78.58 107.3 78.58C108.97 78.58 110.48 79.25 111.44 80.42C112.53 81.76 113.12 83.32 113.13 84.95L113.16 88.84C113.17 90.47 112.61 92.04 111.54 93.39L107.4 98.59V98.6ZM107.31 79.88H107.28C106 79.88 104.82 80.42 104.12 81.29C103.23 82.4 102.77 83.7 102.78 85.03L102.81 88.93C102.81 90.26 103.3 91.55 104.21 92.65L107.4 96.55L110.54 92.61C111.43 91.49 111.89 90.2 111.88 88.87L111.85 84.98C111.85 83.65 111.36 82.36 110.45 81.26C109.75 80.4 108.57 79.89 107.3 79.89L107.31 79.88Z" fill="black"/>
<path d="M366.29 40.41L362.08 35.27C360.99 33.94 360.4 32.37 360.39 30.74L360.36 26.85C360.35 25.22 360.91 23.65 361.99 22.3C362.94 21.1 364.46 20.41 366.15 20.4H366.19C367.86 20.4 369.37 21.07 370.33 22.24C371.42 23.58 372.01 25.14 372.02 26.77L372.05 30.67C372.06 32.3 371.5 33.87 370.42 35.22L366.28 40.41H366.29ZM366.19 21.69H366.16C364.88 21.69 363.7 22.23 363 23.1C362.11 24.21 361.65 25.51 361.66 26.84L361.69 30.73C361.69 32.06 362.18 33.35 363.09 34.45L366.28 38.35L369.42 34.41C370.31 33.29 370.77 32 370.77 30.67L370.74 26.77C370.74 25.44 370.25 24.15 369.34 23.05C368.64 22.19 367.46 21.68 366.2 21.68L366.19 21.69Z" fill="black"/>
<path d="M449.37 98.6L445.16 93.46C444.07 92.13 443.48 90.56 443.47 88.93L443.44 85.03C443.43 83.4 443.99 81.83 445.07 80.48C446.02 79.28 447.54 78.59 449.23 78.58H449.27C450.94 78.58 452.45 79.25 453.41 80.42C454.5 81.75 455.09 83.32 455.1 84.95L455.13 88.84C455.14 90.47 454.58 92.04 453.51 93.39L449.37 98.59V98.6ZM449.27 79.88H449.24C447.96 79.88 446.78 80.42 446.08 81.29C445.19 82.4 444.73 83.7 444.74 85.03L444.77 88.93C444.77 90.26 445.26 91.55 446.17 92.65L449.36 96.55L452.5 92.61C453.39 91.49 453.85 90.2 453.84 88.87L453.81 84.98C453.81 83.65 453.32 82.36 452.41 81.26C451.71 80.4 450.53 79.89 449.27 79.89V79.88Z" fill="black"/>
<path d="M708.26 40.41L704.05 35.27C702.96 33.94 702.37 32.37 702.36 30.74L702.33 26.85C702.32 25.22 702.88 23.65 703.96 22.3C704.91 21.1 706.43 20.41 708.12 20.4C709.84 20.37 711.34 21.06 712.31 22.24C713.4 23.58 713.99 25.14 714 26.77L714.03 30.67C714.04 32.29 713.48 33.87 712.41 35.22L708.27 40.41H708.26ZM708.16 21.69H708.13C706.85 21.69 705.67 22.23 704.97 23.1C704.08 24.21 703.62 25.51 703.63 26.84L703.66 30.73C703.66 32.06 704.15 33.35 705.06 34.45L708.25 38.35L711.39 34.41C712.28 33.29 712.74 32 712.73 30.67L712.7 26.77C712.7 25.44 712.21 24.15 711.3 23.05C710.6 22.19 709.42 21.68 708.15 21.68L708.16 21.69Z" fill="black"/>
<path d="M195.02 44.29L190.15 37.15C188.85 35.25 188.17 33.03 188.17 30.73V25.01C188.17 22.71 188.86 20.49 190.15 18.59L195.02 11.45L199.89 18.59C201.19 20.49 201.87 22.71 201.87 25.01V30.73C201.87 33.03 201.18 35.25 199.89 37.15L195.02 44.29ZM195.02 13.74L191.21 19.32C190.06 21.01 189.45 22.97 189.45 25.02V30.74C189.45 32.78 190.06 34.75 191.21 36.43L195.02 42.01L198.83 36.43C199.98 34.74 200.59 32.78 200.59 30.73V25.01C200.59 22.97 199.98 21 198.83 19.31L195.02 13.73V13.74Z" fill="black"/>
<path d="M278.86 102.36L273.99 95.22C272.69 93.32 272.01 91.1 272.01 88.8V83.08C272.01 80.78 272.7 78.56 273.99 76.66L278.86 69.52L283.73 76.66C285.03 78.56 285.71 80.78 285.71 83.08V88.8C285.71 91.1 285.02 93.32 283.73 95.22L278.86 102.36ZM278.86 71.8L275.05 77.38C273.9 79.07 273.29 81.03 273.29 83.07V88.79C273.29 90.83 273.9 92.8 275.05 94.48L278.86 100.06L282.67 94.48C283.82 92.79 284.43 90.82 284.43 88.78V83.06C284.43 81.02 283.82 79.05 282.67 77.36L278.86 71.78V71.8Z" fill="black"/>
<path d="M537.16 44.29L532.29 37.15C530.99 35.25 530.31 33.03 530.31 30.73V25.01C530.31 22.71 530.99 20.49 532.29 18.59L537.16 11.45L542.03 18.59C543.33 20.49 544.01 22.71 544.01 25.01V30.73C544.01 33.03 543.32 35.25 542.03 37.15L537.16 44.29ZM537.16 13.74L533.35 19.32C532.2 21 531.59 22.97 531.59 25.02V30.74C531.59 32.78 532.2 34.75 533.35 36.43L537.16 42.01L540.97 36.43C542.12 34.74 542.73 32.78 542.73 30.73V25.01C542.73 22.97 542.12 21 540.97 19.31L537.16 13.73V13.74Z" fill="black"/>
<path d="M621 102.36L616.13 95.22C614.83 93.32 614.15 91.1 614.15 88.8V83.08C614.15 80.78 614.83 78.56 616.13 76.66L621 69.52L625.87 76.66C627.17 78.56 627.85 80.78 627.85 83.08V88.8C627.85 91.1 627.16 93.32 625.87 95.22L621 102.36ZM621 71.8L617.19 77.38C616.04 79.06 615.43 81.03 615.43 83.07V88.79C615.43 90.83 616.04 92.8 617.19 94.48L621 100.06L624.81 94.48C625.96 92.79 626.57 90.82 626.57 88.78V83.06C626.57 81.02 625.96 79.05 624.81 77.36L621 71.78V71.8Z" fill="black"/>
<path d="M80.0301 43.74L49.61 13.31L50.52 12.4L80.9501 42.83L80.0301 43.74Z" fill="black"/>
<path d="M136.14 43.54L135.22 42.63L165.65 12.2L166.56 13.11L136.14 43.54Z" fill="black"/>
<path d="M251.27 43.54L220.84 13.11L221.76 12.2L252.18 42.63L251.27 43.54Z" fill="black"/>
<path d="M307.37 43.74L306.46 42.83L336.89 12.4L337.8 13.31L307.37 43.74Z" fill="black"/>
<path d="M422.51 43.74L392.08 13.31L392.99 12.4L423.42 42.83L422.51 43.74Z" fill="black"/>
<path d="M478.61 43.54L477.7 42.63L508.13 12.2L509.04 13.11L478.61 43.54Z" fill="black"/>
<path d="M593.74 43.54L563.32 13.11L564.23 12.2L594.66 42.63L593.74 43.54Z" fill="black"/>
<path d="M649.85 43.74L648.94 42.83L679.36 12.4L680.28 13.31L649.85 43.74Z" fill="black"/>
<path d="M50.52 101.8L49.61 100.89L80.0301 70.46L80.9501 71.38L50.52 101.8Z" fill="black"/>
<path d="M165.65 101.8L135.22 71.38L136.14 70.46L166.56 100.89L165.65 101.8Z" fill="black"/>
<path d="M221.76 101.8L220.84 100.89L251.27 70.46L252.18 71.38L221.76 101.8Z" fill="black"/>
<path d="M336.89 101.8L306.46 71.38L307.37 70.46L337.8 100.89L336.89 101.8Z" fill="black"/>
<path d="M392.99 101.8L392.08 100.89L422.51 70.46L423.42 71.38L392.99 101.8Z" fill="black"/>
<path d="M508.13 101.8L477.7 71.38L478.61 70.46L509.04 100.89L508.13 101.8Z" fill="black"/>
<path d="M564.23 101.8L563.32 100.89L593.74 70.46L594.66 71.38L564.23 101.8Z" fill="black"/>
<path d="M679.36 101.8L648.94 71.38L649.85 70.46L680.28 100.89L679.36 101.8Z" fill="black"/>
</svg>
