<svg width="28" height="28" viewBox="0 0 28 28" fill="none" xmlns="http://www.w3.org/2000/svg">
<path d="M6.99854 25.6612V4.66572C6.99854 4.04701 7.24432 3.45365 7.68181 3.01616C8.1193 2.57867 8.71266 2.33289 9.33137 2.33289H18.6627C19.2814 2.33289 19.8748 2.57867 20.3123 3.01616C20.7498 3.45365 20.9955 4.04701 20.9955 4.66572V25.6612H6.99854Z" stroke="#99A1AF" stroke-width="2.33283" stroke-linecap="round" stroke-linejoin="round"/>
<path d="M6.99843 13.9969H4.6656C4.04689 13.9969 3.45353 14.2427 3.01603 14.6802C2.57854 15.1177 2.33276 15.7111 2.33276 16.3298V23.3283C2.33276 23.947 2.57854 24.5404 3.01603 24.9778C3.45353 25.4153 4.04689 25.6611 4.6656 25.6611H6.99843" stroke="#99A1AF" stroke-width="2.33283" stroke-linecap="round" stroke-linejoin="round"/>
<path d="M20.9956 10.4978H23.3284C23.9471 10.4978 24.5405 10.7436 24.978 11.1811C25.4155 11.6186 25.6613 12.2119 25.6613 12.8306V23.3284C25.6613 23.9471 25.4155 24.5405 24.978 24.9779C24.5405 25.4154 23.9471 25.6612 23.3284 25.6612H20.9956" stroke="#99A1AF" stroke-width="2.33283" stroke-linecap="round" stroke-linejoin="round"/>
<path d="M11.6641 6.99854H16.3297" stroke="#99A1AF" stroke-width="2.33283" stroke-linecap="round" stroke-linejoin="round"/>
<path d="M11.6641 11.6642H16.3297" stroke="#99A1AF" stroke-width="2.33283" stroke-linecap="round" stroke-linejoin="round"/>
<path d="M11.6641 16.3298H16.3297" stroke="#99A1AF" stroke-width="2.33283" stroke-linecap="round" stroke-linejoin="round"/>
<path d="M11.6641 20.9955H16.3297" stroke="#99A1AF" stroke-width="2.33283" stroke-linecap="round" stroke-linejoin="round"/>
</svg>
