<svg width="16" height="16" viewBox="0 0 16 16" fill="none" xmlns="http://www.w3.org/2000/svg">
<g clip-path="url(#clip0_181_3378)">
<path d="M8.39474 14.5224C9.63387 13.4525 13.3239 9.98828 13.3239 6.66196C13.3239 5.24848 12.7624 3.89288 11.7629 2.89339C10.7634 1.8939 9.40785 1.3324 7.99436 1.3324C6.58087 1.3324 5.22528 1.8939 4.22579 2.89339C3.2263 3.89288 2.66479 5.24848 2.66479 6.66196C2.66479 9.98828 6.35485 13.4525 7.59398 14.5224C7.70941 14.6092 7.84993 14.6561 7.99436 14.6561C8.13879 14.6561 8.27931 14.6092 8.39474 14.5224Z" stroke="#6A7282" stroke-width="1.33239" stroke-linecap="round" stroke-linejoin="round"/>
<path d="M7.99431 8.66057C9.0981 8.66057 9.9929 7.76577 9.9929 6.66198C9.9929 5.55819 9.0981 4.66339 7.99431 4.66339C6.89053 4.66339 5.99573 5.55819 5.99573 6.66198C5.99573 7.76577 6.89053 8.66057 7.99431 8.66057Z" stroke="#6A7282" stroke-width="1.33239" stroke-linecap="round" stroke-linejoin="round"/>
</g>
<defs>
<clipPath id="clip0_181_3378">
<rect width="15.9887" height="15.9887" fill="white"/>
</clipPath>
</defs>
</svg>
