<svg width="16" height="16" viewBox="0 0 16 16" fill="none" xmlns="http://www.w3.org/2000/svg">
<g clip-path="url(#clip0_181_3386)">
<path d="M10.6591 13.9901V12.6577C10.6591 11.951 10.3784 11.2732 9.87864 10.7734C9.3789 10.2737 8.7011 9.99292 7.99436 9.99292H3.99718C3.29044 9.99292 2.61264 10.2737 2.11289 10.7734C1.61315 11.2732 1.3324 11.951 1.3324 12.6577V13.9901" stroke="#6A7282" stroke-width="1.33239" stroke-linecap="round" stroke-linejoin="round"/>
<path d="M5.99572 7.32816C7.46743 7.32816 8.6605 6.1351 8.6605 4.66338C8.6605 3.19166 7.46743 1.9986 5.99572 1.9986C4.524 1.9986 3.33093 3.19166 3.33093 4.66338C3.33093 6.1351 4.524 7.32816 5.99572 7.32816Z" stroke="#6A7282" stroke-width="1.33239" stroke-linecap="round" stroke-linejoin="round"/>
<path d="M14.6563 13.9901V12.6577C14.6559 12.0673 14.4593 11.4937 14.0976 11.0271C13.7359 10.5604 13.2294 10.2271 12.6577 10.0795" stroke="#6A7282" stroke-width="1.33239" stroke-linecap="round" stroke-linejoin="round"/>
<path d="M10.6592 2.08521C11.2324 2.23197 11.7404 2.56533 12.1033 3.03274C12.4661 3.50015 12.663 4.07502 12.663 4.66671C12.663 5.25841 12.4661 5.83328 12.1033 6.30069C11.7404 6.76809 11.2324 7.10146 10.6592 7.24822" stroke="#6A7282" stroke-width="1.33239" stroke-linecap="round" stroke-linejoin="round"/>
</g>
<defs>
<clipPath id="clip0_181_3386">
<rect width="15.9887" height="15.9887" fill="white"/>
</clipPath>
</defs>
</svg>
