<svg width="16" height="16" viewBox="0 0 16 16" fill="none" xmlns="http://www.w3.org/2000/svg">
<g clip-path="url(#clip0_181_3396)">
<path d="M7.99436 14.6563C11.6737 14.6563 14.6563 11.6737 14.6563 7.99436C14.6563 4.31506 11.6737 1.3324 7.99436 1.3324C4.31506 1.3324 1.3324 4.31506 1.3324 7.99436C1.3324 11.6737 4.31506 14.6563 7.99436 14.6563Z" stroke="#6A7282" stroke-width="1.33239" stroke-linecap="round" stroke-linejoin="round"/>
<path d="M7.99437 11.9915C10.2019 11.9915 11.9915 10.2019 11.9915 7.99437C11.9915 5.78679 10.2019 3.99719 7.99437 3.99719C5.78679 3.99719 3.99719 5.78679 3.99719 7.99437C3.99719 10.2019 5.78679 11.9915 7.99437 11.9915Z" stroke="#6A7282" stroke-width="1.33239" stroke-linecap="round" stroke-linejoin="round"/>
<path d="M7.99438 9.32677C8.73024 9.32677 9.32677 8.73024 9.32677 7.99438C9.32677 7.25852 8.73024 6.66199 7.99438 6.66199C7.25852 6.66199 6.66199 7.25852 6.66199 7.99438C6.66199 8.73024 7.25852 9.32677 7.99438 9.32677Z" stroke="#6A7282" stroke-width="1.33239" stroke-linecap="round" stroke-linejoin="round"/>
</g>
<defs>
<clipPath id="clip0_181_3396">
<rect width="15.9887" height="15.9887" fill="white"/>
</clipPath>
</defs>
</svg>
