<svg width="47" height="47" viewBox="0 0 47 47" fill="none" xmlns="http://www.w3.org/2000/svg">
<path d="M24.3009 11.4053L18.7725 16.8142C18.0383 17.5487 17.6258 18.5447 17.6258 19.5833C17.6258 20.6219 18.0383 21.6179 18.7725 22.3524C19.507 23.0866 20.5031 23.4991 21.5416 23.4991C22.5802 23.4991 23.5762 23.0866 24.3107 22.3524L27.6595 19.0036C28.0977 18.5652 28.6181 18.2173 29.1909 17.98C29.7636 17.7427 30.3775 17.6206 30.9974 17.6206C31.6174 17.6206 32.2313 17.7427 32.804 17.98C33.3768 18.2173 33.8971 18.5652 34.3354 19.0036L38.019 22.6892C38.7533 23.4237 39.1658 24.4197 39.1658 25.4583C39.1658 26.4969 38.7533 27.4929 38.019 28.2274C41.125 25.1215 43.0833 22.5208 43.0833 18.6041C43.0833 16.4249 42.4222 14.2969 41.1874 12.5013C39.9526 10.7057 38.2021 9.32684 36.1672 8.54692C34.1323 7.76699 31.9087 7.62267 29.7901 8.13301C27.6715 8.64335 25.7575 9.78435 24.3009 11.4053ZM38.019 28.2274C37.6328 28.6137 37.1742 28.9201 36.6695 29.1292C36.1648 29.3383 35.6239 29.4459 35.0776 29.4459C34.5313 29.4459 33.9904 29.3383 33.4857 29.1292C32.981 28.9201 32.5225 28.6137 32.1362 28.2274C32.5544 28.6055 32.8914 29.0648 33.1266 29.5772C33.3618 30.0896 33.4904 30.6445 33.5046 31.2081C33.5188 31.7718 33.4182 32.3324 33.209 32.856C32.9998 33.3795 32.6863 33.8551 32.2876 34.2538C31.8889 34.6525 31.4134 34.9659 30.8898 35.1751C30.3662 35.3843 29.8056 35.4849 29.2419 35.4708C28.6783 35.4566 28.1234 35.328 27.611 35.0928C27.0986 34.8575 26.6394 34.5206 26.2612 34.1024C26.6478 34.4875 26.9547 34.945 27.1643 35.4487C27.3739 35.9525 27.4822 36.4926 27.483 37.0383C27.4837 37.5839 27.3768 38.1243 27.1685 38.6286C26.9603 39.133 26.6546 39.5913 26.269 39.9774C25.8969 40.3496 25.4536 40.643 24.9655 40.8401C24.4774 41.0372 23.9547 41.1338 23.4284 41.1243C22.9021 41.1148 22.3832 40.9993 21.9025 40.7848C21.4219 40.5702 20.9894 40.261 20.631 39.8756L9.79163 29.375C6.85413 26.4375 3.91663 23.1083 3.91663 18.6041C3.91706 16.4251 4.57843 14.2974 5.81339 12.5021C7.04834 10.7067 8.7988 9.3282 10.8336 8.54852C12.8684 7.76884 15.0918 7.62468 17.2103 8.13508C19.3287 8.64548 21.2426 9.78643 22.699 11.4073C22.9167 11.6096 23.2031 11.7219 23.5003 11.7216C23.7976 11.7212 24.0837 11.6082 24.3009 11.4053" stroke="#005761" stroke-width="3.91667" stroke-linecap="round" stroke-linejoin="round"/>
</svg>
