<svg width="47" height="47" viewBox="0 0 47 47" fill="none" xmlns="http://www.w3.org/2000/svg">
<g clip-path="url(#clip0_1_3183)">
<path d="M22.9822 28.8132C24.8274 27.2622 26.151 25.1812 26.7734 22.8525C27.3958 20.5238 27.2869 18.0599 26.4615 15.7952C25.6361 13.5304 24.1341 11.5743 22.1593 10.1921C20.1845 8.80996 17.8323 8.0686 15.4218 8.0686C13.0113 8.0686 10.6592 8.80996 8.68434 10.1921C6.70949 11.5743 5.20753 13.5304 4.38214 15.7952C3.55674 18.0599 3.44786 20.5238 4.07026 22.8525C4.69265 25.1812 6.01621 27.2622 7.86143 28.8132C4.98007 30.1161 2.48308 32.1395 0.61131 34.6882C0.265597 35.1593 0.121184 35.7484 0.209843 36.326C0.298502 36.9036 0.612968 37.4223 1.08406 37.768C1.55516 38.1137 2.1443 38.2581 2.72187 38.1695C3.29944 38.0808 3.81814 37.7663 4.16385 37.2952C5.45955 35.5256 7.15415 34.0864 9.11018 33.0943C11.0662 32.1022 13.2286 31.5852 15.4218 31.5852C17.6151 31.5852 19.7774 32.1022 21.7335 33.0943C23.6895 34.0864 25.3841 35.5256 26.6798 37.2952C27.0255 37.7666 27.5443 38.0813 28.122 38.1701C28.6998 38.2589 29.2892 38.1146 29.7605 37.7689C30.2318 37.4232 30.5465 36.9044 30.6354 36.3267C30.7242 35.7489 30.5799 35.1596 30.2342 34.6882C28.3613 32.1398 25.8638 30.1165 22.9822 28.8132ZM8.07807 19.8281C8.07807 18.3757 8.50877 16.9558 9.31571 15.7482C10.1227 14.5405 11.2696 13.5992 12.6115 13.0434C13.9534 12.4876 15.43 12.3421 16.8545 12.6255C18.2791 12.9089 19.5876 13.6083 20.6146 14.6353C21.6417 15.6624 22.3411 16.9709 22.6245 18.3954C22.9078 19.82 22.7624 21.2966 22.2066 22.6385C21.6507 23.9804 20.7095 25.1273 19.5018 25.9342C18.2941 26.7412 16.8743 27.1719 15.4218 27.1719C13.4741 27.1719 11.6062 26.3982 10.229 25.021C8.85178 23.6437 8.07807 21.7758 8.07807 19.8281ZM45.9167 37.7597C45.6835 37.9311 45.4188 38.0549 45.1377 38.1239C44.8566 38.193 44.5647 38.2059 44.2786 38.1621C43.9925 38.1183 43.7179 38.0185 43.4703 37.8685C43.2228 37.7185 43.0073 37.5212 42.836 37.2879C41.5371 35.5217 39.8419 34.0849 37.8865 33.0933C35.9312 32.1016 33.7705 31.5826 31.5781 31.5781C30.9938 31.5781 30.4334 31.346 30.0202 30.9329C29.6071 30.5197 29.3749 29.9593 29.3749 29.375C29.3749 28.7907 29.6071 28.2303 30.0202 27.8172C30.4334 27.404 30.9938 27.1719 31.5781 27.1719C32.6219 27.17 33.6533 26.9457 34.6035 26.5138C35.5538 26.0819 36.4011 25.4524 37.0889 24.6673C37.7767 23.8821 38.2892 22.9594 38.5923 21.9606C38.8954 20.9617 38.9821 19.9098 38.8466 18.8748C38.7111 17.8398 38.3565 16.8456 37.8065 15.9585C37.2565 15.0714 36.5237 14.3117 35.6569 13.7301C34.7902 13.1484 33.8094 12.7583 32.78 12.5856C31.7506 12.4129 30.6961 12.4616 29.6871 12.7286C29.4052 12.8101 29.1099 12.8345 28.8185 12.8004C28.5271 12.7663 28.2455 12.6743 27.9901 12.5298C27.7347 12.3854 27.5108 12.1914 27.3314 11.9592C27.152 11.7271 27.0208 11.4614 26.9455 11.1778C26.8702 10.8943 26.8522 10.5985 26.8928 10.3079C26.9333 10.0174 27.0314 9.7378 27.1815 9.48566C27.3315 9.23353 27.5304 9.0139 27.7664 8.83966C28.0025 8.66543 28.271 8.5401 28.5561 8.47103C31.1364 7.78732 33.8727 8.0026 36.3143 9.08142C38.756 10.1602 40.7576 12.0383 41.9895 14.4064C43.2214 16.7745 43.6103 19.4915 43.0921 22.1101C42.5739 24.7287 41.1795 27.0928 39.1385 28.8132C42.0198 30.1161 44.5168 32.1395 46.3886 34.6882C46.7318 35.1586 46.8749 35.7458 46.7864 36.3213C46.698 36.8969 46.3853 37.414 45.9167 37.7597Z" fill="#005761"/>
</g>
<defs>
<clipPath id="clip0_1_3183">
<rect width="47" height="47" fill="white"/>
</clipPath>
</defs>
</svg>
