<svg width="47" height="47" viewBox="0 0 47 47" fill="none" xmlns="http://www.w3.org/2000/svg">
<g clip-path="url(#clip0_1_3229)">
<path d="M38.352 16.685C40.891 19.964 42.2746 23.9905 42.2873 28.1375C42.3 32.2846 40.9411 36.3195 38.4223 39.614C35.9034 42.9085 32.3659 45.2776 28.3605 46.3526C24.3552 47.4275 20.1068 47.148 16.2769 45.5574C12.4469 43.9668 9.25038 41.1545 7.18495 37.5583C5.11952 33.9622 4.30111 29.784 4.85717 25.6744C5.41322 21.5647 7.31252 17.7543 10.2593 14.8363C13.2062 11.9183 17.0351 10.0566 21.15 9.541V4.7H25.85V9.541C29.281 9.964 32.43 11.327 35.015 13.348L38.446 9.917L41.783 13.254L38.352 16.6615V16.685ZM23.5 42.3C27.2396 42.3 30.826 40.8145 33.4702 38.1702C36.1145 35.5259 37.6 31.9396 37.6 28.2C37.6 24.4604 36.1145 20.8741 33.4702 18.2298C30.826 15.5855 27.2396 14.1 23.5 14.1C19.7605 14.1 16.1741 15.5855 13.5298 18.2298C10.8856 20.8741 9.40002 24.4604 9.40002 28.2C9.40002 31.9396 10.8856 35.5259 13.5298 38.1702C16.1741 40.8145 19.7605 42.3 23.5 42.3ZM16.45 0H30.55V4.7H16.45V0ZM28.482 19.881L31.819 23.218L23.5 31.49L20.1865 28.2L28.482 19.881Z" fill="#005761"/>
</g>
<defs>
<clipPath id="clip0_1_3229">
<rect width="47" height="47" fill="white"/>
</clipPath>
</defs>
</svg>
