<svg width="16" height="16" viewBox="0 0 16 16" fill="none" xmlns="http://www.w3.org/2000/svg">
<g clip-path="url(#clip0_181_1755)">
<path d="M1.3737 7.76251C1.31818 7.91209 1.31818 8.07661 1.3737 8.22619C1.91445 9.53736 2.83235 10.6584 4.01102 11.4473C5.18969 12.2362 6.57606 12.6573 7.99436 12.6573C9.41266 12.6573 10.799 12.2362 11.9777 11.4473C13.1564 10.6584 14.0743 9.53736 14.615 8.22619C14.6705 8.07661 14.6705 7.91209 14.615 7.76251C14.0743 6.45134 13.1564 5.33026 11.9777 4.54139C10.799 3.75252 9.41266 3.33139 7.99436 3.33139C6.57606 3.33139 5.18969 3.75252 4.01102 4.54139C2.83235 5.33026 1.91445 6.45134 1.3737 7.76251Z" stroke="#005761" stroke-width="1.33239" stroke-linecap="round" stroke-linejoin="round"/>
<path d="M7.99435 9.99293C9.09813 9.99293 9.99293 9.09813 9.99293 7.99435C9.99293 6.89056 9.09813 5.99576 7.99435 5.99576C6.89056 5.99576 5.99576 6.89056 5.99576 7.99435C5.99576 9.09813 6.89056 9.99293 7.99435 9.99293Z" stroke="#005761" stroke-width="1.33239" stroke-linecap="round" stroke-linejoin="round"/>
</g>
<defs>
<clipPath id="clip0_181_1755">
<rect width="15.9887" height="15.9887" fill="white"/>
</clipPath>
</defs>
</svg>
