<svg width="14" height="14" viewBox="0 0 14 14" fill="none" xmlns="http://www.w3.org/2000/svg">
<path d="M9.33132 11.6642V2.33286C9.33132 2.02351 9.20843 1.72682 8.98968 1.50808C8.77093 1.28933 8.47425 1.16644 8.1649 1.16644H5.83207C5.52271 1.16644 5.22603 1.28933 5.00729 1.50808C4.78854 1.72682 4.66565 2.02351 4.66565 2.33286V11.6642" stroke="#364153" stroke-width="1.16642" stroke-linecap="round" stroke-linejoin="round"/>
<path d="M11.6641 3.49927H2.3328C1.6886 3.49927 1.16638 4.02149 1.16638 4.66568V10.4978C1.16638 11.142 1.6886 11.6642 2.3328 11.6642H11.6641C12.3083 11.6642 12.8305 11.142 12.8305 10.4978V4.66568C12.8305 4.02149 12.3083 3.49927 11.6641 3.49927Z" stroke="#364153" stroke-width="1.16642" stroke-linecap="round" stroke-linejoin="round"/>
</svg>
