<svg width="14" height="14" viewBox="0 0 14 14" fill="none" xmlns="http://www.w3.org/2000/svg">
<g clip-path="url(#clip0_181_1183)">
<path d="M12.4923 6.3698C12.5967 6.32374 12.6853 6.24807 12.7472 6.15215C12.809 6.05623 12.8413 5.94429 12.8401 5.83018C12.8389 5.71607 12.8043 5.60482 12.7405 5.5102C12.6767 5.41558 12.5866 5.34175 12.4813 5.29786L7.48257 3.02102C7.33061 2.9517 7.16553 2.91583 6.99851 2.91583C6.83149 2.91583 6.66641 2.9517 6.51445 3.02102L1.51635 5.29553C1.41252 5.341 1.32419 5.41575 1.26217 5.51063C1.20015 5.6055 1.16711 5.7164 1.16711 5.82975C1.16711 5.9431 1.20015 6.054 1.26217 6.14887C1.32419 6.24375 1.41252 6.31849 1.51635 6.36397L6.51445 8.64315C6.66641 8.71246 6.83149 8.74833 6.99851 8.74833C7.16553 8.74833 7.33061 8.71246 7.48257 8.64315L12.4923 6.3698Z" stroke="#364153" stroke-width="1.16642" stroke-linecap="round" stroke-linejoin="round"/>
<path d="M12.8306 5.83209V9.33134" stroke="#364153" stroke-width="1.16642" stroke-linecap="round" stroke-linejoin="round"/>
<path d="M3.49927 7.2901V9.33133C3.49927 9.79536 3.86794 10.2404 4.52417 10.5685C5.18041 10.8966 6.07046 11.081 6.99852 11.081C7.92658 11.081 8.81662 10.8966 9.47286 10.5685C10.1291 10.2404 10.4978 9.79536 10.4978 9.33133V7.2901" stroke="#364153" stroke-width="1.16642" stroke-linecap="round" stroke-linejoin="round"/>
</g>
<defs>
<clipPath id="clip0_181_1183">
<rect width="13.997" height="13.997" fill="white"/>
</clipPath>
</defs>
</svg>
