<svg width="14" height="14" viewBox="0 0 14 14" fill="none" xmlns="http://www.w3.org/2000/svg">
<g clip-path="url(#clip0_181_1166)">
<path d="M7.34906 12.7134C8.43383 11.7768 11.6642 8.74407 11.6642 5.83211C11.6642 4.5947 11.1727 3.40797 10.2977 2.53298C9.42269 1.658 8.23596 1.16644 6.99855 1.16644C5.76114 1.16644 4.57441 1.658 3.69943 2.53298C2.82445 3.40797 2.33289 4.5947 2.33289 5.83211C2.33289 8.74407 5.56328 11.7768 6.64804 12.7134C6.7491 12.7894 6.87211 12.8305 6.99855 12.8305C7.12499 12.8305 7.248 12.7894 7.34906 12.7134Z" stroke="#364153" stroke-width="1.16642" stroke-linecap="round" stroke-linejoin="round"/>
<path d="M6.99853 7.58171C7.96482 7.58171 8.74815 6.79837 8.74815 5.83208C8.74815 4.86579 7.96482 4.08246 6.99853 4.08246C6.03224 4.08246 5.2489 4.86579 5.2489 5.83208C5.2489 6.79837 6.03224 7.58171 6.99853 7.58171Z" stroke="#364153" stroke-width="1.16642" stroke-linecap="round" stroke-linejoin="round"/>
</g>
<defs>
<clipPath id="clip0_181_1166">
<rect width="13.997" height="13.997" fill="white"/>
</clipPath>
</defs>
</svg>
