<svg width="14" height="14" viewBox="0 0 14 14" fill="none" xmlns="http://www.w3.org/2000/svg">
<g clip-path="url(#clip0_181_1176)">
<path d="M9.33136 12.2474V11.0809C9.33136 10.4622 9.08558 9.86887 8.64809 9.43138C8.2106 8.99389 7.61723 8.74811 6.99853 8.74811H3.49928C2.88057 8.74811 2.28721 8.99389 1.84971 9.43138C1.41222 9.86887 1.16644 10.4622 1.16644 11.0809V12.2474" stroke="#364153" stroke-width="1.16642" stroke-linecap="round" stroke-linejoin="round"/>
<path d="M5.24885 6.4153C6.53724 6.4153 7.58168 5.37086 7.58168 4.08247C7.58168 2.79408 6.53724 1.74963 5.24885 1.74963C3.96046 1.74963 2.91602 2.79408 2.91602 4.08247C2.91602 5.37086 3.96046 6.4153 5.24885 6.4153Z" stroke="#364153" stroke-width="1.16642" stroke-linecap="round" stroke-linejoin="round"/>
<path d="M12.8306 12.2473V11.0809C12.8302 10.564 12.6581 10.0619 12.3415 9.65342C12.0248 9.24491 11.5814 8.95313 11.0809 8.82391" stroke="#364153" stroke-width="1.16642" stroke-linecap="round" stroke-linejoin="round"/>
<path d="M9.33136 1.82544C9.83316 1.95392 10.2779 2.24576 10.5955 2.65494C10.9132 3.06413 11.0856 3.56738 11.0856 4.08537C11.0856 4.60336 10.9132 5.10662 10.5955 5.5158C10.2779 5.92498 9.83316 6.21682 9.33136 6.3453" stroke="#364153" stroke-width="1.16642" stroke-linecap="round" stroke-linejoin="round"/>
</g>
<defs>
<clipPath id="clip0_181_1176">
<rect width="13.997" height="13.997" fill="white"/>
</clipPath>
</defs>
</svg>
