<svg width="16" height="16" viewBox="0 0 16 16" fill="none" xmlns="http://www.w3.org/2000/svg">
<g clip-path="url(#clip0_181_1481)">
<path d="M14.6564 11.272V13.2706C14.6571 13.4562 14.6191 13.6398 14.5448 13.8098C14.4705 13.9798 14.3614 14.1324 14.2247 14.2578C14.088 14.3833 13.9266 14.4788 13.7508 14.5382C13.5751 14.5976 13.3888 14.6197 13.2041 14.603C11.1541 14.3803 9.1849 13.6798 7.45479 12.5578C5.84514 11.535 4.48045 10.1703 3.45761 8.56063C2.33173 6.82266 1.63106 4.84392 1.41239 2.78471C1.39574 2.60048 1.41764 2.41481 1.47668 2.23951C1.53572 2.06421 1.63062 1.90312 1.75532 1.76651C1.88003 1.62989 2.03182 1.52074 2.20103 1.446C2.37023 1.37126 2.55314 1.33258 2.73812 1.3324H4.73671C5.06002 1.32922 5.37345 1.44371 5.61859 1.65453C5.86373 1.86535 6.02385 2.15812 6.0691 2.47826C6.15345 3.11785 6.30989 3.74585 6.53544 4.35027C6.62507 4.58872 6.64447 4.84786 6.59133 5.09699C6.5382 5.34613 6.41476 5.57481 6.23565 5.75594L5.38958 6.60201C6.33795 8.26986 7.7189 9.65082 9.38675 10.5992L10.2328 9.75312C10.414 9.574 10.6426 9.45056 10.8918 9.39743C11.1409 9.3443 11.4 9.3637 11.6385 9.45333C12.2429 9.67887 12.8709 9.83531 13.5105 9.91967C13.8341 9.96532 14.1297 10.1283 14.3409 10.3777C14.5522 10.627 14.6645 10.9453 14.6564 11.272Z" stroke="#005761" stroke-width="1.33239" stroke-linecap="round" stroke-linejoin="round"/>
</g>
<defs>
<clipPath id="clip0_181_1481">
<rect width="15.9887" height="15.9887" fill="white"/>
</clipPath>
</defs>
</svg>
