<svg width="20" height="20" viewBox="0 0 20 20" fill="none" xmlns="http://www.w3.org/2000/svg">
<path d="M2.08227 5.83055C1.50041 8.57651 1.50041 11.4139 2.08227 14.1599C2.15873 14.4387 2.30645 14.6929 2.51091 14.8974C2.71537 15.1018 2.96952 15.2495 3.24838 15.326C7.71576 16.0662 12.2745 16.0662 16.7419 15.326C17.0208 15.2495 17.2749 15.1018 17.4794 14.8974C17.6838 14.6929 17.8316 14.4387 17.908 14.1599C18.4899 11.4139 18.4899 8.57651 17.908 5.83055C17.8316 5.55169 17.6838 5.29754 17.4794 5.09308C17.2749 4.88862 17.0208 4.7409 16.7419 4.66445C12.2745 3.92435 7.71578 3.92435 3.24838 4.66445C2.96952 4.7409 2.71537 4.88862 2.51091 5.09308C2.30645 5.29754 2.15873 5.55169 2.08227 5.83055Z" stroke="white" stroke-width="1.66587" stroke-linecap="round" stroke-linejoin="round"/>
<path d="M8.32935 12.4942L12.494 9.99538L8.32935 7.49658V12.4942Z" stroke="white" stroke-width="1.66587" stroke-linecap="round" stroke-linejoin="round"/>
</svg>
