<svg width="14" height="14" viewBox="0 0 14 14" fill="none" xmlns="http://www.w3.org/2000/svg">
<g clip-path="url(#clip0_260_280)">
<path d="M8.45661 2.33284H5.54057L4.08255 4.08246H2.33292C2.02357 4.08246 1.72688 4.20535 1.50814 4.4241C1.28939 4.64285 1.1665 4.93953 1.1665 5.24888V10.4978C1.1665 10.8071 1.28939 11.1038 1.50814 11.3225C1.72688 11.5413 2.02357 11.6642 2.33292 11.6642H11.6643C11.9736 11.6642 12.2703 11.5413 12.489 11.3225C12.7078 11.1038 12.8307 10.8071 12.8307 10.4978V5.24888C12.8307 4.93953 12.7078 4.64285 12.489 4.4241C12.2703 4.20535 11.9736 4.08246 11.6643 4.08246H9.91463L8.45661 2.33284Z" stroke="#005761" stroke-width="1.16642" stroke-linecap="round" stroke-linejoin="round"/>
<path d="M6.9984 9.33133C7.9647 9.33133 8.74803 8.54799 8.74803 7.5817C8.74803 6.61541 7.9647 5.83208 6.9984 5.83208C6.03211 5.83208 5.24878 6.61541 5.24878 7.5817C5.24878 8.54799 6.03211 9.33133 6.9984 9.33133Z" stroke="#005761" stroke-width="1.16642" stroke-linecap="round" stroke-linejoin="round"/>
</g>
<defs>
<clipPath id="clip0_260_280">
<rect width="13.997" height="13.997" fill="white"/>
</clipPath>
</defs>
</svg>
