<svg width="16" height="16" viewBox="0 0 16 16" fill="none" xmlns="http://www.w3.org/2000/svg">
<g clip-path="url(#clip0_260_319)">
<path d="M11.9915 5.32957C13.0953 5.32957 13.9901 4.43477 13.9901 3.33098C13.9901 2.2272 13.0953 1.3324 11.9915 1.3324C10.8877 1.3324 9.99292 2.2272 9.99292 3.33098C9.99292 4.43477 10.8877 5.32957 11.9915 5.32957Z" stroke="#005761" stroke-width="1.33239" stroke-linecap="round" stroke-linejoin="round"/>
<path d="M3.99712 9.99296C5.10091 9.99296 5.99571 9.09817 5.99571 7.99438C5.99571 6.89059 5.10091 5.99579 3.99712 5.99579C2.89333 5.99579 1.99854 6.89059 1.99854 7.99438C1.99854 9.09817 2.89333 9.99296 3.99712 9.99296Z" stroke="#005761" stroke-width="1.33239" stroke-linecap="round" stroke-linejoin="round"/>
<path d="M11.9915 14.6563C13.0953 14.6563 13.9901 13.7615 13.9901 12.6577C13.9901 11.5539 13.0953 10.6591 11.9915 10.6591C10.8877 10.6591 9.99292 11.5539 9.99292 12.6577C9.99292 13.7615 10.8877 14.6563 11.9915 14.6563Z" stroke="#005761" stroke-width="1.33239" stroke-linecap="round" stroke-linejoin="round"/>
<path d="M5.72266 9.00031L10.2728 11.6518" stroke="#005761" stroke-width="1.33239" stroke-linecap="round" stroke-linejoin="round"/>
<path d="M10.2661 4.33691L5.72266 6.98837" stroke="#005761" stroke-width="1.33239" stroke-linecap="round" stroke-linejoin="round"/>
</g>
<defs>
<clipPath id="clip0_260_319">
<rect width="15.9887" height="15.9887" fill="white"/>
</clipPath>
</defs>
</svg>
