<svg width="16" height="16" viewBox="0 0 16 16" fill="none" xmlns="http://www.w3.org/2000/svg">
<path d="M7.99435 1.99859C7.19926 2.79368 6.75258 3.87205 6.75258 4.99647C6.75258 6.12089 7.19926 7.19926 7.99435 7.99435C8.78943 8.78944 9.8678 9.23611 10.9922 9.23611C12.1167 9.23611 13.195 8.78944 13.9901 7.99435C13.9901 9.1802 13.6385 10.3394 12.9796 11.3254C12.3208 12.3114 11.3844 13.0799 10.2888 13.5337C9.19324 13.9875 7.9877 14.1063 6.82463 13.8749C5.66157 13.6436 4.59322 13.0725 3.7547 12.234C2.91618 11.3955 2.34514 10.3271 2.11379 9.16407C1.88244 8.001 2.00118 6.79545 2.45498 5.69987C2.90879 4.60429 3.67728 3.66788 4.66328 3.00906C5.64928 2.35023 6.8085 1.99859 7.99435 1.99859Z" stroke="white" stroke-width="1.33239" stroke-linecap="round" stroke-linejoin="round"/>
</svg>
