<svg width="20" height="20" viewBox="0 0 20 20" fill="none" xmlns="http://www.w3.org/2000/svg">
<path d="M12.4938 1.66586H4.99741C4.55559 1.66586 4.13187 1.84137 3.81946 2.15378C3.50705 2.46619 3.33154 2.88991 3.33154 3.33173V16.6587C3.33154 17.1005 3.50705 17.5242 3.81946 17.8366C4.13187 18.149 4.55559 18.3245 4.99741 18.3245H14.9926C15.4344 18.3245 15.8581 18.149 16.1706 17.8366C16.483 17.5242 16.6585 17.1005 16.6585 16.6587V5.83053L12.4938 1.66586Z" stroke="#005761" stroke-width="1.66587" stroke-linecap="round" stroke-linejoin="round"/>
<path d="M11.6611 1.66586V4.9976C11.6611 5.43941 11.8366 5.86313 12.1491 6.17554C12.4615 6.48795 12.8852 6.66346 13.327 6.66346H16.6587" stroke="#005761" stroke-width="1.66587" stroke-linecap="round" stroke-linejoin="round"/>
<path d="M8.32944 7.4964H6.66357" stroke="#005761" stroke-width="1.66587" stroke-linecap="round" stroke-linejoin="round"/>
<path d="M13.327 10.8281H6.66357" stroke="#005761" stroke-width="1.66587" stroke-linecap="round" stroke-linejoin="round"/>
<path d="M13.327 14.1599H6.66357" stroke="#005761" stroke-width="1.66587" stroke-linecap="round" stroke-linejoin="round"/>
</svg>
