<svg width="24" height="24" viewBox="0 0 24 24" fill="none" xmlns="http://www.w3.org/2000/svg">
<path d="M15.472 12.8859L16.9865 21.4091C17.0035 21.5095 16.9894 21.6126 16.9461 21.7047C16.9029 21.7969 16.8325 21.8736 16.7445 21.9247C16.6565 21.9758 16.5549 21.9988 16.4535 21.9906C16.352 21.9824 16.2555 21.9435 16.1768 21.8789L12.5979 19.1928C12.4251 19.0637 12.2153 18.994 11.9996 18.994C11.784 18.994 11.5741 19.0637 11.4013 19.1928L7.81647 21.8779C7.73782 21.9424 7.64139 21.9813 7.54006 21.9894C7.43872 21.9976 7.3373 21.9747 7.24932 21.9238C7.16134 21.8729 7.09098 21.7963 7.04764 21.7043C7.0043 21.6124 6.99003 21.5094 7.00673 21.4091L8.52024 12.8859" stroke="#005761" stroke-width="1.99935" stroke-linecap="round" stroke-linejoin="round"/>
<path d="M11.9961 13.9955C15.3087 13.9955 17.9941 11.3101 17.9941 7.99744C17.9941 4.68481 15.3087 1.99939 11.9961 1.99939C8.68347 1.99939 5.99805 4.68481 5.99805 7.99744C5.99805 11.3101 8.68347 13.9955 11.9961 13.9955Z" stroke="#005761" stroke-width="1.99935" stroke-linecap="round" stroke-linejoin="round"/>
</svg>
