<svg width="24" height="24" viewBox="0 0 24 24" fill="none" xmlns="http://www.w3.org/2000/svg">
<path d="M18.9939 13.9954C20.4834 12.5359 21.9929 10.7865 21.9929 8.49724C21.9929 7.03902 21.4136 5.64053 20.3825 4.60941C19.3514 3.5783 17.9529 2.99902 16.4947 2.99902C14.7352 2.99902 13.4957 3.49886 11.9961 4.99837C10.4966 3.49886 9.25703 2.99902 7.4976 2.99902C6.03939 2.99902 4.64089 3.5783 3.60978 4.60941C2.57866 5.64053 1.99939 7.03902 1.99939 8.49724C1.99939 10.7965 3.4989 12.5459 4.99841 13.9954L11.9961 20.9932L18.9939 13.9954Z" stroke="#005761" stroke-width="1.99935" stroke-linecap="round" stroke-linejoin="round"/>
<path d="M11.9961 4.99841L9.03709 7.95745C8.83397 8.15909 8.67277 8.39893 8.56276 8.66315C8.45275 8.92737 8.39612 9.21075 8.39612 9.49695C8.39612 9.78316 8.45275 10.0665 8.56276 10.3308C8.67277 10.595 8.83397 10.8348 9.03709 11.0364C9.85682 11.8562 11.1664 11.8862 12.0361 11.1064L14.1054 9.20704C14.6241 8.73639 15.2994 8.47567 15.9998 8.47567C16.7002 8.47567 17.3755 8.73639 17.8942 9.20704L20.8532 11.8662" stroke="#005761" stroke-width="1.99935" stroke-linecap="round" stroke-linejoin="round"/>
<path d="M17.9948 14.9957L15.9948 12.9957" stroke="#005761" stroke-width="1.99935" stroke-linecap="round" stroke-linejoin="round"/>
<path d="M14.9957 17.9948L12.9957 15.9948" stroke="#005761" stroke-width="1.99935" stroke-linecap="round" stroke-linejoin="round"/>
</svg>
