<svg width="16" height="16" viewBox="0 0 16 16" fill="none" xmlns="http://www.w3.org/2000/svg">
<g clip-path="url(#clip0_181_2592)">
<path d="M3.99718 11.9915H2.66479C2.31142 11.9915 1.97252 11.8511 1.72265 11.6012C1.47277 11.3514 1.3324 11.0125 1.3324 10.6591V7.32812C1.3324 6.97475 1.47277 6.63585 1.72265 6.38598C1.97252 6.1361 2.31142 5.99573 2.66479 5.99573H13.3239C13.6773 5.99573 14.0162 6.1361 14.2661 6.38598C14.5159 6.63585 14.6563 6.97475 14.6563 7.32812V10.6591C14.6563 11.0125 14.5159 11.3514 14.2661 11.6012C14.0162 11.8511 13.6773 11.9915 13.3239 11.9915H11.9915" stroke="#005761" stroke-width="1.33239" stroke-linecap="round" stroke-linejoin="round"/>
<path d="M3.99719 5.99577V1.99859C3.99719 1.82191 4.06738 1.65246 4.19232 1.52752C4.31725 1.40259 4.4867 1.3324 4.66339 1.3324H11.3253C11.502 1.3324 11.6715 1.40259 11.7964 1.52752C11.9214 1.65246 11.9915 1.82191 11.9915 1.99859V5.99577" stroke="#005761" stroke-width="1.33239" stroke-linecap="round" stroke-linejoin="round"/>
<path d="M11.3253 9.32678H4.66339C4.29546 9.32678 3.99719 9.62505 3.99719 9.99298V13.9902C3.99719 14.3581 4.29546 14.6563 4.66339 14.6563H11.3253C11.6933 14.6563 11.9915 14.3581 11.9915 13.9902V9.99298C11.9915 9.62505 11.6933 9.32678 11.3253 9.32678Z" stroke="#005761" stroke-width="1.33239" stroke-linecap="round" stroke-linejoin="round"/>
</g>
<defs>
<clipPath id="clip0_181_2592">
<rect width="15.9887" height="15.9887" fill="white"/>
</clipPath>
</defs>
</svg>
