<svg width="16" height="16" viewBox="0 0 16 16" fill="none" xmlns="http://www.w3.org/2000/svg">
<path d="M11.9915 5.32957C13.0953 5.32957 13.9901 4.43477 13.9901 3.33098C13.9901 2.2272 13.0953 1.3324 11.9915 1.3324C10.8877 1.3324 9.99292 2.2272 9.99292 3.33098C9.99292 4.43477 10.8877 5.32957 11.9915 5.32957Z" stroke="white" stroke-width="1.33239" stroke-linecap="round" stroke-linejoin="round"/>
<path d="M3.99718 9.9929C5.10097 9.9929 5.99577 9.0981 5.99577 7.99431C5.99577 6.89053 5.10097 5.99573 3.99718 5.99573C2.89339 5.99573 1.9986 6.89053 1.9986 7.99431C1.9986 9.0981 2.89339 9.9929 3.99718 9.9929Z" stroke="white" stroke-width="1.33239" stroke-linecap="round" stroke-linejoin="round"/>
<path d="M11.9915 14.6564C13.0953 14.6564 13.9901 13.7616 13.9901 12.6578C13.9901 11.554 13.0953 10.6592 11.9915 10.6592C10.8877 10.6592 9.99292 11.554 9.99292 12.6578C9.99292 13.7616 10.8877 14.6564 11.9915 14.6564Z" stroke="white" stroke-width="1.33239" stroke-linecap="round" stroke-linejoin="round"/>
<path d="M5.7226 9.00037L10.2727 11.6518" stroke="white" stroke-width="1.33239" stroke-linecap="round" stroke-linejoin="round"/>
<path d="M10.2661 4.33691L5.7226 6.98837" stroke="white" stroke-width="1.33239" stroke-linecap="round" stroke-linejoin="round"/>
</svg>
