<svg width="14" height="14" viewBox="0 0 14 14" fill="none" xmlns="http://www.w3.org/2000/svg">
<g clip-path="url(#clip0_181_2529)">
<path d="M7.34023 1.50817C7.12153 1.28941 6.8249 1.16648 6.51557 1.16641H2.3328C2.02345 1.16641 1.72676 1.2893 1.50802 1.50805C1.28927 1.72679 1.16638 2.02348 1.16638 2.33283V6.5156C1.16645 6.82493 1.28938 7.12156 1.50814 7.34026L6.58439 12.4165C6.84946 12.6799 7.20798 12.8277 7.58167 12.8277C7.95537 12.8277 8.31388 12.6799 8.57896 12.4165L12.4165 8.57899C12.6799 8.31391 12.8277 7.9554 12.8277 7.5817C12.8277 7.20801 12.6799 6.84949 12.4165 6.58442L7.34023 1.50817Z" stroke="white" stroke-width="1.16642" stroke-linecap="round" stroke-linejoin="round"/>
<path d="M4.37412 4.66567C4.53517 4.66567 4.66573 4.53511 4.66573 4.37406C4.66573 4.21301 4.53517 4.08246 4.37412 4.08246C4.21308 4.08246 4.08252 4.21301 4.08252 4.37406C4.08252 4.53511 4.21308 4.66567 4.37412 4.66567Z" fill="white" stroke="white" stroke-width="1.16642" stroke-linecap="round" stroke-linejoin="round"/>
</g>
<defs>
<clipPath id="clip0_181_2529">
<rect width="13.997" height="13.997" fill="white"/>
</clipPath>
</defs>
</svg>
