<svg width="28" height="28" viewBox="0 0 28 28" fill="none" xmlns="http://www.w3.org/2000/svg">
<path d="M13.9971 8.16492V24.4948" stroke="#005761" stroke-width="2.33283" stroke-linecap="round" stroke-linejoin="round"/>
<path d="M3.49918 20.9955C3.18983 20.9955 2.89314 20.8726 2.6744 20.6539C2.45565 20.4351 2.33276 20.1385 2.33276 19.8291V4.66568C2.33276 4.35633 2.45565 4.05965 2.6744 3.8409C2.89314 3.62216 3.18983 3.49927 3.49918 3.49927H9.33126C10.5687 3.49927 11.7554 3.99083 12.6304 4.86581C13.5054 5.74079 13.9969 6.92752 13.9969 8.16493C13.9969 6.92752 14.4885 5.74079 15.3635 4.86581C16.2385 3.99083 17.4252 3.49927 18.6626 3.49927H24.4947C24.804 3.49927 25.1007 3.62216 25.3195 3.8409C25.5382 4.05965 25.6611 4.35633 25.6611 4.66568V19.8291C25.6611 20.1385 25.5382 20.4351 25.3195 20.6539C25.1007 20.8726 24.804 20.9955 24.4947 20.9955H17.4962C16.5681 20.9955 15.6781 21.3642 15.0218 22.0204C14.3656 22.6767 13.9969 23.5667 13.9969 24.4948C13.9969 23.5667 13.6283 22.6767 12.972 22.0204C12.3158 21.3642 11.4257 20.9955 10.4977 20.9955H3.49918Z" stroke="#005761" stroke-width="2.33283" stroke-linecap="round" stroke-linejoin="round"/>
</svg>
