<svg width="24" height="24" viewBox="0 0 24 24" fill="none" xmlns="http://www.w3.org/2000/svg">
<path d="M14.9951 1.99933H5.99801C5.46775 1.99933 4.9592 2.20997 4.58425 2.58492C4.2093 2.95988 3.99866 3.46842 3.99866 3.99868V19.9935C3.99866 20.5237 4.2093 21.0323 4.58425 21.4072C4.9592 21.7822 5.46775 21.9928 5.99801 21.9928H17.9941C18.5244 21.9928 19.0329 21.7822 19.4079 21.4072C19.7828 21.0323 19.9935 20.5237 19.9935 19.9935V6.9977L14.9951 1.99933Z" stroke="#005761" stroke-width="1.99935" stroke-linecap="round" stroke-linejoin="round"/>
<path d="M13.9955 1.99933V5.99803C13.9955 6.52829 14.2061 7.03683 14.5811 7.41178C14.956 7.78673 15.4646 7.99738 15.9948 7.99738H19.9935" stroke="#005761" stroke-width="1.99935" stroke-linecap="round" stroke-linejoin="round"/>
<path d="M9.99744 8.99707H7.99744" stroke="#005761" stroke-width="1.99935" stroke-linecap="round" stroke-linejoin="round"/>
<path d="M15.9948 12.9958H7.99744" stroke="#005761" stroke-width="1.99935" stroke-linecap="round" stroke-linejoin="round"/>
<path d="M15.9948 16.9944H7.99744" stroke="#005761" stroke-width="1.99935" stroke-linecap="round" stroke-linejoin="round"/>
</svg>
