<svg width="28" height="28" viewBox="0 0 28 28" fill="none" xmlns="http://www.w3.org/2000/svg">
<path d="M22.162 16.3299C23.8999 14.6269 25.6612 12.5857 25.6612 9.91456C25.6612 8.21312 24.9853 6.58136 23.7822 5.37826C22.5791 4.17516 20.9474 3.49927 19.2459 3.49927C17.193 3.49927 15.7467 4.08248 13.9971 5.8321C12.2474 4.08248 10.8011 3.49927 8.74818 3.49927C7.04674 3.49927 5.41498 4.17516 4.21188 5.37826C3.00878 6.58136 2.33289 8.21312 2.33289 9.91456C2.33289 12.5973 4.08251 14.6385 5.83214 16.3299L13.9971 24.4948L22.162 16.3299Z" stroke="#005761" stroke-width="2.33283" stroke-linecap="round" stroke-linejoin="round"/>
<path d="M13.997 5.83203L10.5444 9.28462C10.3074 9.5199 10.1193 9.79974 9.99095 10.108C9.86259 10.4163 9.79651 10.747 9.79651 11.0809C9.79651 11.4148 9.86259 11.7455 9.99095 12.0538C10.1193 12.3621 10.3074 12.6419 10.5444 12.8772C11.5009 13.8336 13.0289 13.8686 14.0436 12.9588L16.4581 10.7426C17.0633 10.1935 17.8513 9.88928 18.6685 9.88928C19.4857 9.88928 20.2736 10.1935 20.8788 10.7426L24.3314 13.8453" stroke="#005761" stroke-width="2.33283" stroke-linecap="round" stroke-linejoin="round"/>
<path d="M20.9956 17.4963L18.6627 15.1635" stroke="#005761" stroke-width="2.33283" stroke-linecap="round" stroke-linejoin="round"/>
<path d="M17.4963 20.9956L15.1635 18.6627" stroke="#005761" stroke-width="2.33283" stroke-linecap="round" stroke-linejoin="round"/>
</svg>
