<svg width="24" height="24" viewBox="0 0 24 24" fill="none" xmlns="http://www.w3.org/2000/svg">
<path d="M12.5969 21.7919C14.4563 20.1864 19.9935 14.9881 19.9935 9.99673C19.9935 7.87569 19.1509 5.84152 17.6511 4.34171C16.1513 2.84191 14.1171 1.99933 11.9961 1.99933C9.87501 1.99933 7.84084 2.84191 6.34104 4.34171C4.84124 5.84152 3.99866 7.87569 3.99866 9.99673C3.99866 14.9881 9.53586 20.1864 11.3953 21.7919C11.5685 21.9221 11.7793 21.9926 11.9961 21.9926C12.2128 21.9926 12.4236 21.9221 12.5969 21.7919Z" stroke="#005761" stroke-width="1.99935" stroke-linecap="round" stroke-linejoin="round"/>
<path d="M11.9961 12.9958C13.6524 12.9958 14.9951 11.6531 14.9951 9.99677C14.9951 8.34045 13.6524 6.99774 11.9961 6.99774C10.3398 6.99774 8.99707 8.34045 8.99707 9.99677C8.99707 11.6531 10.3398 12.9958 11.9961 12.9958Z" stroke="#005761" stroke-width="1.99935" stroke-linecap="round" stroke-linejoin="round"/>
</svg>
